<?xml version="1.0" encoding="UTF-8"?>
<svg id="Layer_1" data-name="Layer 1" xmlns="http://www.w3.org/2000/svg" viewBox="0 0 64 64">
  <defs>
    <style>
      .cls-1 {
        fill: #fff;
      }
    </style>
  </defs>
  <path class="cls-1" d="M64,0v64H0V0h64ZM21.81,34.44c-.35-.08-.17-.11-.34-.37l-.16.12.19.06h-.31c.14-.21-.11-.69-.29-.74-.08-.02-.2.07-.3.06-.14-.01-.43-.26-.56.06l-.04-.11-.18-.02-.06.38-.12-.06v.19c.13-.08.26-.06.25.12-.58-.2-.48.79.06.5.02.02-.12.23.06.25-.05-.35.4-.1.56-.37l-.05.18.11.04-.19.22c.28.08.15-.19.31-.25l.04.19h.28s-.12.15-.12.15l.25.03c-.09.2-.35.14-.5.06l.03.25c-.16-.08-.15-.23-.2-.31-.04-.07-.23-.06-.15-.31l-.19.25-.18-.06c.22.27.53.48.87.56l-.31.5c-.95-.47-2.13-.11-2.9.56-.16.14-.27.38-.41.46-.21.12-.61.15-.87.26-1.27.5-2.03,1.95-1.91,3.28-1.05.72-1.57,2.01-1.35,3.27-1.09.8-1.51,2.08-1.18,3.38.04.17.23.49.23.62,0,.16-.21.54-.23.82-.03.33.02.65.06.97l-.25-.13.12-.06v-.12s-.12,0-.12,0l.13-.25c-.2.03-.2-.2-.44-.13l.37-.19-.55.07v.15s-.23.09-.23.09l.03-.19h-.21s-.07.12-.07.12l-.28-.12c-.23.49-.31.94-.38,1.47-.02.12.06.18-.12.16.24-.52-.08-.48-.32-.8l-.11.05v-.25s.19,0,.19,0l-.12.12c.37.11.29.11.34-.18.01-.1-.02-.19.1-.07l.13.25-.06-.22.18-.19-.12-.09.25-.25c-.39.2-.58-.09-.94-.22-.07-.02-.13.02-.16.02-.06,0,.02-.14-.09-.11l.19.25-.37.19c-.18-.86-.1-1.66.31-2.44.21.26.2.56.47.82.08.07.49.38.53.15-.3-.55-.42-1.05-.23-1.67.08-.27.32-.46.29-.74-.47-.04-.67.45-.91.75-.68-1.34.2-2.93,1.34-3.69-.02.34.04.68.16,1,.03.08.36.8.5.57.07-.12-.06-1.01-.03-1.28.09-.86.74-1.61,1.44-2.06-.45-.2-1.06.18-1.41.47-.17.14-.21.41-.47.37.09-.19-.02-.42.01-.58.12-.66,1.42-2.1,2.1-2.22.2-.03.39.02.58-.04.45-1.67,1.8-2.89,3.56-2.94.38-.64.72-1.18,1.38-1.56,1.06-.61,1.86-.4,2.87-1.25,1.16-.98,2.15-2.39,2.75-3.78-1.12,1.59-2.58,3.01-4.35,3.87h-.08s-.11-.24-.11-.24c-.23-.04-.39.06-.58.16-.9.44-1.91.94-2.33,1.89-1.64.24-3.21,1.31-3.68,2.94-1.77.48-3.24,2.42-3.12,4.28-1.02.8-1.76,1.99-1.68,3.33.02.32.25.82.25,1,0,.14-.27.54-.34.72-.51,1.39-.13,3.21.97,4.22.23.21.74.43.87.56.09.09.3.63.42.83.65.99,1.91,1.71,3.11,1.77.25.01.59-.08.75-.06.08,0,.5.26.69.31.77.23,1.85.2,2.56-.17.83.57,1.79.91,2.81.86.27-.01.69-.16.93-.13.15.02.57.31.8.39,1.43.51,3.21.19,4.48-.58.41,1.82,2.1,2.93,3.9,3.06.59.04,1.24.05,1.82.06.82.02,1.57-.03,2.36-.24,1.72.83,1.82,2.53,4.01,2.36,1.42-.11,2.19-.83,1.28-2.19,3.43.72,7.56-1.11,7.45-5.05,1.65-.79,2.47-2.49,2.36-4.29-.01-.22-.14-.54-.12-.75.02-.22.29-.78.36-1.09.39-1.78,0-3.66-1.38-4.88.18-1.88-.94-3.93-2.71-4.64-.19-1.43-1.27-2.63-2.59-3.13-.29-.11-1.03-.19-1.17-.27-.07-.04-.28-.45-.38-.56-1.13-1.33-2.4-1.73-4.09-1.72-.71,0-.57-.14-1.08-.43-1.23-.68-2.75-.78-4.05-.22-1.13-.8-2.5-.97-3.84-.76l.57-2.03c.37.01.72,0,.99-.29.4-.41,1.1-1.52,1.45-2.05.78-1.17,1.42-1.94.11-3.14l.87-1.13c1.66.89,3.51-.12,4.44-1.56l.09-.03c.37.2,1-.08,1.3.01.1.03.22.21.34.29,1.13.76,2.37,1.06,3.71.73,1.17-.29,2.12-1.16,2.38-2.34,2.06.91,4.51.6,6.22-.87.35-.3.62-.68.95-.99,1.67.38,3.16-.17,4.04-1.64.57-.95.68-1.97.76-3.06l5.09-3.35c.25-.17.07-.5-.01-.73-.48-1.43-1.68-3.31-2.76-4.36-.14-.13-.96-.86-1.07-.87-.13-.02-.25.01-.36.07-.46.24-1.22.9-1.71,1.23-.79.53-1.59,1.04-2.38,1.56-.12.03-.75-.37-.96-.46-1.68-.69-3.86-.33-4.53,1.53-1.52-.47-3.06-.88-4.57-1.36-2.33-.74-6.23-2.55-8.54-2.32-2.01.2-4.11,2.54-5.38,3.99-1.19,1.36-2.58,3.21-2.65,5.1-.05,1.3.59,2.49.69,3.75.07.87-.18,2.63.39,3.3l.61.45-.53.53c-1.12-.47-1.5-.59-2.37.31-.8.82-1.46,1.79-2.25,2.63-.1.24.05.61,0,.69-.08.13-1.46.82-1.7.93-1.21.53-2.86.96-4.19.94-.3,0-1.42-.27-1.56,0s.02.45.28.53c2.04.66,5.44-.55,7.23-1.59.2-.12.54-.42.71-.48.12-.05.45.09.6.15.06.03.11-.03.09.1l-1.94,1.84c.9-.34,1.53-1.12,2.25-1.72l.88.44-1.97,2.65c.84-.7,1.6-1.52,2.23-2.43.15-.09,1,.62.97.74l-2.54,4.37c1.19-1.09,1.83-2.7,2.7-4.02.03-.05.11-.18.18-.14l.3.43c-.87,1.66-1.6,3.51-1.62,5.42.01.02.08-.03.09-.06.16-.29.27-1.12.37-1.5.35-1.23.8-2.43,1.34-3.59l.13-.04c.01.17.24.31.28.44.07.21-.41,1.36-.5,1.68-.56,2.01-.69,4.56.1,6.53.1.26.28.71.62.66-.02,0-.13.13-.25.06l.06.37c.31,0,.45-.21.44-.5-.08.06-.17.04-.25.06.02,0,.27-.18.28-.19.19-.22.05-.46-.09-.66.21-.05.04-.15.08-.3.02-.07.25-.4.23-.42h-.21s-.04-.19-.04-.19l.28.12c.24-.24.36-.54.04-.74.11.02.24-.08.34-.07.04,0,.03.1.07.11.11.04.37.09.39-.08-.04-.15-.08-.18-.23-.16l.06-.31-.31-.07s.45-.64.34-.75l-.22.12v-.31s.35.18.35.18l.12-.12.29.65c0,.06-.56.26-.5.48,1.49-.42,3.34-.39,4.59.63.99.8,1.48,2.22,1.03,3.44,1.59-.59,2.5.27,2.94,1.72.03.09-.04.11.13.09.47-1.05-.35-2.27-1.36-2.61-.15-.05-.83-.15-.86-.2.11-2.05-1.67-3.72-3.65-3.88l.13-.09c.05-.19-.11-.15-.16-.22-.06-.11,0-.33-.13-.37l-.59.12c.14.45-.38.14-.06.12l-.11-.07c.07-.17-.01-.23-.14-.34.21-.07.22.23.46.22.15,0,.59-.27.8-.33,1.77-.5,3.64.2,4.33,1.96.13-.38.08-.74.03-1.12h1.03c.08,0,.65.18.78.22,1.38.49,2.41,1.79,2.44,3.28.39-.25.45-.76.5-1.19,1.18.26,2.17.97,2.58,2.14.23.65.22,1.26.3,1.92.07-.11.32-.2.37-.25.03-.02.05-.22.19-.28.19-.09.5.22.66.34.08.07.52.49.47.56h-.37c.03-.1-.31-.67-.35-.68-.21-.08-.28.28-.59.06-.06.22.17.22.25.37l-.18.06-.07-.12c.16.36-.41,1.17-.38,1.4,0,.02.19.14.19.26h-.44s-.13.28-.13.28l-.12-.06c.19.14-.25.44-.31.37.42-1.99-1.2-4.39-3.38-4-.18-1.31-1.29-2.73-2.75-2.31-.11.16.53.36.62.41,1.31.79,1.58,1.94,1.32,3.4.58-.19.45-.75,1.17-.86,1.72-.27,2.7,2.02,2.5,3.44-.02.18-.11.36-.16.53-.04.14.06.36-.14.33l.19.19c-.56-.09-.68.69-.31,1l-.25.09.22.1.09-.13c0,.46-.32.09-.56.06l.06-.16-.12-.03v.37s.16-.06.16-.06l.03.12h-.21s-.04.19-.04.19l.31-.12.03.19c.13-.16.31-.13.5-.12.19.29-.4.32-.4.41l.12.22-.19-.12c-.07.28-.64.2-.69.5l.31.03c-.13.1-.27.14-.25.34l-.19-.19-.13.25c.2-.58.5-1.1.55-1.73.1-1.12-.4-2.72-1.62-3.02.19.47.59.92.76,1.39.24.68.2,1.35.05,2.04l-.12-.25c.06.31-.34.35-.25.62l-.19-.06-.06.31.25.09-.72.66c-.19,0-.04-.06.01-.11.15-.13.25-.2.05-.39l-.85.35v.22s-.18,0-.18,0l.06-.19-.28.12c-.06-.09,0-.16-.15-.13l-.06.21-.13.04c.1-.38-.33-.02-.42.08-.02.02.04.11-.02.14s-.32-.04-.44.09l.19.06-.06.25h-.12s.06-.19.06-.19c-.24-.02-.36.1-.56.16-.21.06-.53.03-.6.22-.06-.22-.39-.11-.59-.19.05-.32.24-.57.33-.89.18-.65.17-1.34-.12-1.96.58-.77,1.23-.96,2.04-.37.23.17,1.02,1.06.6.03-.27-.66-1.14-1.1-1.84-1.01-.1-.47-.03-.8-.2-1.27-.19-.51-.52-1.1-1.05-1.29.24.8.63,1.41.56,2.28-.05.68-.37.93-.81,1.39.11.39.31.68.31,1.11,0,.46-.2.6-.3.96-.11.39.07.55-.58.51-.02-.12.17-.01.19-.09.02-.1.04-.27-.13-.22-.05.15-.19.17-.13.37-.11.03-.03-.13-.1-.13-.07,0-.54.23-.59.29-.06.06.08.17-.22.22l.03-.19c-.16,0-.34.02-.4.18l-1.22-.12c.1.26-.14.73.13.84l-.16.09c-.13-.08-.05-.11-.05-.17.02-.59,0-1.11-.21-1.67,1.36-1.24,2.14-3.92.61-5.31.86-1.2.83-3.39-.58-4.18-.52-.29-1.41-.37-1.87.06l.1.09c1.56-.04,2.4.99,2.19,2.52-.04.31-.27.91-.55,1.07-.16.1-.75.2-.81.32,2.29.61,1.82,3.46.47,4.78-.39-.53-1.03-.98-1.72-.94l.91.81c.71.88.9,2.04.59,3.13-.23-.06.01-.3,0-.31h-.12c-.07-.17.14-.11.18-.23.02-.07-.07-.28,0-.4l-.13-.03c.21-.06.11-.22.13-.41l-.06.19-.19-.19.25-.1-.25-.71c-.01.11-.18.48.06.31l-.06.38-.19-.06c.09.2-.11.26-.11.28,0,.04.06.33.05.34-.15.11-.09-.15-.19-.12v.25s-.12-.06-.12-.06c0,.07-.25.44-.04.37l.09-.13v.18c-.11.08-.31.01-.38.04-.05.02-.75.67-.77.71-.12.24,0,.39.15.56-.43.08-.51-.38-.94-.19l.12.19c-.17.07-.3-.12-.4-.13-.02,0-.11.2-.26.19l-.02.09c.07.12.08.3.24.29l-.08.06.02.19c-.2.04-.13-.25-.19-.39-.21-.46-.73-.09-1.12-.29l.03.25c-.45-.55-1.16-.7-1.84-.69.12-1.21-.33-2.3-1.44-2.86-.22-1.32.45-2.84,2.04-2.4.28.08.74.48.89.73.39.62.31,1.53.14,2.21.72-.48,1.64-.22,2.11.48.23.34.26.75.48,1.08.5-1.17-.51-2.46-1.71-2.57.06-2.25-2.47-3.78-4.1-1.88-.53-.36-1.01-.58-1.67-.47-.09.02-.26.06-.14.17.08.08.64.21.82.31.97.55.3,1.26.4,2.13-1.82-.56-3.77.76-3.5,2.75l-1.25.19c0-.5-.3-1.11-.81-1.25.06.2.19.32.25.54.1.35.04.89-.07,1.23-.13.37-.46.7-.42,1.11.75-.71,1.46-1.09,2.53-1,.28.02.55.18.84.12-.11-.38-.34-.67-.37-1.09-.18-2.01,2.27-2.52,3.64-1.46.78.6.77,1.86.6,2.74.3.02.55-.15.85-.18.47-.04,1.56.19,1.65.74l.24-.07c.1-.11-.21-.55.07-.49-.06.3.17.68-.31.62,0,.3.17.35.37.53.17.16.13.32.5.28l.02-.49.21-.2-.03.19.87-.13h-.31s.19-.22.19-.22c-.1-.06-.16-.46-.23-.22-.05.17,0,.31-.18.44l-.27-.19.29-.06.09-.56.21.07.29-.19c0,.1-.11.06-.18.17-.03.04-.09.25-.07.27l.44-.06-.07.27.13.04v.12s-.13.04-.13.04l.07.15-1.19.13-.13.75-.06-.25c-.2-.06-.15.12-.32.15-.12.02-.24-.03-.37-.02l.19-.06-.06-.19c-.17.09-.33.09-.5,0l.06.19-.19.04v.28c-.28-.26-.21-.04-.29,0-.14.05-.35,0-.45.16l.12.22c-.34-.4-.79.02-1.21-.13l-.13.25c-.26-.15.16-.11.03-.25-.02-.02-.36.07-.47.05-.02,0-.36-.22-.39-.24-.13-.05-.56-.16-.64-.1-.05.39-.28.12-.53.28-.1.07-.16.2-.15.32l-.13-.03-.03-.15c-.52.31-1.12.28-1.75.28-.09,0-.15-.19-.34.03.11-.21-.01-.3-.09-.06-.16.04-.01-.18-.22-.13l-.06.12c-.05-.29-.29-.21-.43-.28-.22-.12-.41-.45-.54-.09l.1.19c-.21.07-.15-.18-.34-.13-.12.03-.35.46-.34,0l-.28.1-1.25-.28.04.09-.19.09v-.25c-.43.04-.78-.61-1.25-.5l.12-.19-.44-.31.12-.09-.16-.16-.09.44c-.06-.66-.04-1.3.24-1.92.1-.21.54-.75.56-.88.02-.15-.15-.48-.17-.68-.12-1.05.22-2.2,1.1-2.83.47-.34,1.18-.56,1.71-.23-.24.39-.25.98-.07,1.39.06.15.2.38.39.33-.14-1.41.59-2.76,2.06-3-.09-.41-.7-.23-.99-.14-.49.15-.82.46-1.17.81l-.91-.26c-.78-2.05.88-3.55,2.92-2.99.46.13.6.28.95.55.05.04.12.17.19.06-.18-1.24-1.63-1.6-2.7-1.39-1.85.38-2.74,2.17-2.11,3.92-1.67.56-2.47,2.6-1.94,4.22-.81.95-1.04,2.13-.81,3.35l-.5-.06c-.04.08.27.08.12.19-.02.01-.14,0-.19,0v-.19s-.12-.03-.12-.03l.25-.03v-.31s.13.25.13.25c.29-.16.12-.41.13-.6.02-.28.06-.56.06-.84l-.25.06.1.25c-.2-.02-.14-.23-.16-.25-.02-.03-.6.05-.73.04-.08,0-.13-.07-.18-.08-.04,0-.09.08-.16.07-.15-.03-.48-.35-.59-.48-.84-1.02-.65-2.57.37-3.37h.09c-.03.21.72.64.81.56-.04-.21-.22-.34-.3-.54-.27-.65-.29-1.62-.04-2.27.37-1,1.58-1.63,2.59-1.75.13-.12-.35-.25-.4-.26-.36-.09-.67-.03-1.04,0,.12-.91.64-2.05,1.59-2.32.27-.07.71-.02.85-.09.06-.03.34-.55.53-.72,1-.87,2.28-.6,3.15.31.19-.26-.27-.74-.24-.9s.59-.67.75-.75c.33-.18.37.01.68.09l-.06.19.94.25-.06-.19.19.12-.12-.22.31.03-.03.38.4.06-.12-.12.25-.06v.25c.57-.02,1.28.32,1.78.06,0,.23.91.12.97.06l-.12-.31c.24.18.42.47.72.19.05.21.22.11.4.12l-.12-.07.06-.15-.13.03c-.08-.33.25-.11.41-.31.09.13-.11.26-.22.19l.1.25.58-.07v-.19s.19.06.19.06c.02-.15-.07-.19-.19-.12l.06-.31-.34-.13-.06.13-.03-.13-.43.07c-.02.18,0,.34-.19.43-.04-.26-.27-.41-.39-.65-.26-.51-.38-1.09-.48-1.65-.08-.44-.02-.94-.23-1.33-.29,1.16-.24,2.51.28,3.59-.12.15-.31-.01-.52.03-.02,0-.2.25-.36.18,0-.21.26-.13.19-.37h-.25s-.03-.19-.03-.19l-.25.13-.15-.13-.06.12c-.17-.21-.02-.31-.03-.44-.02-.21-.14-.43-.16-.65-.15-1.56.33-3.26.62-4.78-.18-.04-.1.05-.14.14-.58,1.19-1.37,3.78-1.23,5.07.04.37.16.79.62.6.11.15-.25.5-.31.44-.06-.11.25-.25.19-.31-.12-.12-.12.13-.16.13l-.03-.13-.12.12-.07-.3-.34-.07.03-.31-.16.05c-.1-.16-.38-.2-.56-.3h-.09c0,.12.05.22-.13.19.13-.18-.04-.42-.23-.43-.2-.01-.05.34-.33.24-.02-.1.09-.04.12-.11.21-.42-.19-.64-.58-.57-.18.03-.64.32-.79.28l-.14-.3-.12-.06.33.12.27-.18c.03-.05-.01-.08-.03-.13.42.09.77-.28,1.03-.56.57-.62.99-1.44,1.34-2.19-.12-.03-.15.06-.21.13-.76.78-1.19,1.34-2.1,2.02-.16.12-.34.04-.23.36.03.09.13.15.17.23ZM13.5,18.31c.05-.86-.59-1.7-1.31-2.09-1.92-1.04-4.34.35-4.32,2.53-3.42.22-3.28,5.16.19,5.06-.16,2.29,3.09,3.34,4.32,1.44.95.5,2.49-.11,2.72-1.19.1-.46-.01-.88-.07-1.32,2.56-1.29,1.41-5.26-1.53-4.44ZM20.98,19.89c-.39-.37-1.04.26-.61.64s1.01-.26.61-.64ZM18.36,22.7c-.6.08-.65,1.04,0,1.16.92.18.92-1.29,0-1.16ZM20.85,23.32c-.18.06-.16.52.12.56.52.07.44-.74-.12-.56ZM35.36,25.58c-.42-.31-.89.37-.44.66s.8-.4.44-.66ZM21.69,26.38c-1.28.54-2.69.82-4.09.68-.32-.03-1.18-.38-1.32-.37-.08,0-.15.06-.19.13-.14.55.39.76.84.85,1.53.29,3.6-.22,4.75-1.28ZM23.06,27.44l-1.48,1.05c-1.32.82-2.72,1.43-4.3,1.57-.13.21.05.42.22.53,1.08.72,3.46-1.06,4.28-1.78.12-.11,1.35-1.31,1.28-1.37ZM15,30.06c.05-.06-.29-.58-.35-.68-.24-.39-1.03-1.62-1.38-1.81-.1-.06-.21-.1-.33-.06-.19.33.17.7.37.96.12.16,1.57,1.73,1.69,1.6ZM32.42,28.14c-.92.17-.37,1.66.48,1.1.51-.34.16-1.22-.48-1.1ZM7.35,28.39c-.58.03-.55.95.05.92.65-.02.49-.95-.05-.92ZM19.31,28.38c-.46.13-.99.3-1.47.32-.5.01-.97-.18-1.47-.19-.05.29.07.51.33.64.74.35,2.04-.23,2.61-.76ZM14.06,31.81c-.58-.58-1.25-1.13-1.92-1.61-.21-.15-1.54-1.12-1.71-.95-.07.38.39.66.67.86.88.66,1.95,1.26,2.96,1.7ZM21.94,30.06c-.44.19-.8.53-1.21.76-.66.37-1.36.65-2.1.8.15.71.92.39,1.38.16.75-.39,1.42-1.07,1.94-1.72ZM16.61,31.63c-.4.11-.26.88.22.73.38-.12.24-.85-.22-.73ZM10.11,31.82c-.61.13-.38,1.15.27,1.03.69-.14.47-1.19-.27-1.03ZM15.87,33.8c.1-.16-.1-.57-.34-.37-.32.26.19.6.34.37ZM12.98,33.64c-.24.08-.26.66.13.73.62.11.57-.97-.13-.73ZM8.05,34.77c-.66.17-.42,1.42.46,1.14.63-.2.46-1.38-.46-1.14ZM11.45,35.93c.59.14.44-.69-.06-.42l.06.42ZM23.29,36.7c-.42.13-.18.92.27.78.48-.15.19-.92-.27-.78ZM31.25,37.5c.07-.06-.25-.36-.32-.4-1.1-.75-2.58.04-2.81,1.28-1.48-.61-3.54-.05-3.94,1.62l.7-.58c1.84-1.26,4.36-.29,4.55,1.99.1.14.26-.22.3-.33.23-.76-.15-1.45-.65-2.01-.3-.34-.54-.2-.24-.82.49-1,1.47-.89,2.41-.75ZM21.5,49.31c.2.8,1.47.58,1.87.03.21-.28.58-1.3.06-1.41-.25,1.05-.78,1.68-1.94,1.38Z"/>
  <path d="M29.06,36c-.34.05-.52-.4-.62-.66-.79-1.97-.66-4.52-.1-6.53.09-.32.57-1.47.5-1.68-.04-.14-.27-.27-.28-.44l-.13.04c-.54,1.16-.99,2.36-1.34,3.59-.11.38-.21,1.21-.37,1.5-.02.03-.08.08-.09.06.01-1.91.75-3.75,1.62-5.42l-.3-.43c-.07-.05-.15.09-.18.14-.87,1.32-1.5,2.93-2.7,4.02l2.54-4.37c.03-.12-.82-.83-.97-.74-.62.9-1.38,1.73-2.23,2.43l1.97-2.65-.88-.44c-.72.6-1.35,1.38-2.25,1.72l1.94-1.84c.02-.13-.02-.07-.09-.1-.15-.06-.48-.2-.6-.15-.17.07-.51.36-.71.48-1.79,1.04-5.19,2.25-7.23,1.59-.26-.08-.41-.26-.28-.53s1.26,0,1.56,0c1.32.02,2.98-.41,4.19-.94.24-.11,1.62-.8,1.7-.93.05-.07-.1-.45,0-.69.78-.84,1.45-1.8,2.25-2.63.87-.9,1.25-.77,2.37-.31l.53-.53-.61-.45c-.57-.68-.32-2.43-.39-3.3-.1-1.26-.73-2.45-.69-3.75.07-1.89,1.46-3.73,2.65-5.1,1.27-1.46,3.38-3.79,5.38-3.99,2.31-.23,6.21,1.58,8.54,2.32,1.51.48,3.05.9,4.57,1.36.67-1.87,2.85-2.23,4.53-1.53.2.08.83.48.96.46.79-.53,1.59-1.04,2.38-1.56.49-.33,1.25-.99,1.71-1.23.12-.06.23-.09.36-.07.11.02.93.74,1.07.87,1.08,1.05,2.28,2.93,2.76,4.36.08.23.27.56.01.73l-5.09,3.35c-.08,1.08-.19,2.11-.76,3.06-.88,1.47-2.37,2.02-4.04,1.64-.33.32-.6.69-.95.99-1.71,1.47-4.16,1.79-6.22.87-.26,1.19-1.21,2.06-2.38,2.34-1.34.33-2.58.03-3.71-.73-.11-.08-.24-.26-.34-.29-.3-.09-.93.19-1.3-.01l-.09.03c-.93,1.44-2.78,2.45-4.44,1.56l-.87,1.13c1.31,1.2.67,1.96-.11,3.14-.35.52-1.05,1.64-1.45,2.05-.28.28-.62.3-.99.29l-.57,2.03c1.35-.21,2.71-.04,3.84.76,1.3-.56,2.82-.46,4.05.22.51.28.37.43,1.08.43,1.69-.02,2.96.39,4.09,1.72.1.11.31.52.38.56.14.08.88.16,1.17.27,1.33.5,2.41,1.7,2.59,3.13,1.77.71,2.89,2.76,2.71,4.64,1.39,1.23,1.77,3.11,1.38,4.88-.07.3-.33.87-.36,1.09-.02.2.11.52.12.75.11,1.8-.71,3.5-2.36,4.29.11,3.94-4.02,5.78-7.45,5.05.91,1.35.14,2.07-1.28,2.19-2.19.17-2.29-1.54-4.01-2.36-.79.21-1.54.26-2.36.24-.58-.01-1.23-.02-1.82-.06-1.8-.13-3.5-1.24-3.9-3.06-1.27.76-3.06,1.09-4.48.58-.23-.08-.65-.37-.8-.39-.24-.03-.66.11-.93.13-1.02.05-1.98-.28-2.81-.86-.71.37-1.8.39-2.56.17-.19-.06-.61-.31-.69-.31-.16-.01-.5.08-.75.06-1.19-.06-2.45-.78-3.11-1.77-.13-.2-.34-.73-.42-.83-.13-.13-.64-.35-.87-.56-1.1-1.01-1.48-2.83-.97-4.22.07-.18.34-.58.34-.72,0-.17-.23-.68-.25-1-.08-1.34.66-2.53,1.68-3.33-.12-1.86,1.35-3.8,3.12-4.28.48-1.63,2.04-2.7,3.68-2.94.42-.96,1.43-1.45,2.33-1.89.19-.1.35-.2.58-.16l.11.25h.08c1.77-.86,3.23-2.28,4.35-3.87-.6,1.39-1.59,2.8-2.75,3.78-1.01.85-1.81.64-2.87,1.25-.66.38-1,.92-1.38,1.56-1.76.05-3.12,1.27-3.56,2.94-.19.06-.39,0-.58.04-.68.12-1.98,1.56-2.1,2.22-.03.16.08.39-.01.58.26.04.3-.23.47-.37.35-.29.96-.67,1.41-.47-.69.46-1.35,1.2-1.44,2.06-.03.28.1,1.16.03,1.28-.14.24-.47-.48-.5-.57-.12-.32-.18-.66-.16-1-1.15.76-2.02,2.34-1.34,3.69.24-.3.44-.79.91-.75.02.28-.21.47-.29.74-.19.62-.07,1.12.23,1.67-.04.23-.46-.08-.53-.15-.26-.25-.26-.56-.47-.82-.41.78-.49,1.58-.31,2.44l.37-.19-.19-.25c.11-.03.03.11.09.11.03,0,.09-.04.16-.02.36.13.55.42.94.22l-.25.25.12.09-.18.19.06.22-.13-.25c-.12-.13-.08-.03-.1.07-.04.3.03.29-.34.18l.12-.12h-.19s0,.25,0,.25l.11-.05c.24.32.57.28.32.8.19.03.11-.04.12-.16.07-.53.15-.97.38-1.47l.28.12.07-.13h.21s-.03.19-.03.19l.22-.09v-.15s.56-.07.56-.07l-.37.19c.24-.08.24.16.44.13l-.13.25h.12s0,.13,0,.13l-.12.06.25.13c-.04-.32-.09-.64-.06-.97.02-.28.23-.66.23-.82,0-.13-.19-.45-.23-.62-.34-1.31.09-2.59,1.18-3.38-.22-1.26.3-2.55,1.35-3.27-.13-1.33.64-2.78,1.91-3.28.26-.1.66-.13.87-.26.14-.09.26-.33.41-.46.77-.68,1.95-1.03,2.9-.56l.31-.5c-.35-.08-.66-.29-.87-.56l.18.06.19-.25c-.08.25.11.24.15.31.05.09.03.24.2.31l-.03-.25c.15.07.41.14.5-.06l-.25-.03.12-.16h-.28s-.04-.19-.04-.19c-.16.06-.03.33-.31.25l.19-.22-.11-.04.05-.18c-.17.27-.62.02-.56.37-.18-.02-.04-.23-.06-.25-.55.29-.64-.7-.06-.5.01-.19-.12-.2-.25-.12v-.19s.12.06.12.06l.06-.38.18.02.04.11c.14-.33.42-.08.56-.06.1,0,.22-.08.3-.06.18.05.43.53.29.74h.31s-.19-.06-.19-.06l.16-.12c.18.26,0,.3.34.37-.04-.09-.15-.15-.17-.23-.11-.32.07-.24.23-.36.91-.68,1.35-1.24,2.1-2.02.06-.07.09-.16.21-.13-.35.75-.78,1.57-1.34,2.19-.26.29-.61.65-1.03.56.02.04.06.08.03.13l-.27.18-.33-.12.12.06.14.3c.15.03.61-.25.79-.28.38-.07.79.15.58.57-.04.07-.15.01-.12.11.28.1.13-.26.33-.24.19.01.35.25.23.43.17.04.12-.06.13-.19h.09c.18.1.46.15.56.3l.16-.05-.03.31.34.07.07.3.12-.12.03.13s.03-.25.16-.13c.06.06-.25.2-.19.31.06.06.42-.29.31-.44-.46.19-.58-.23-.62-.6-.15-1.3.64-3.88,1.23-5.07.04-.08-.04-.17.14-.14-.29,1.52-.78,3.22-.62,4.78.02.22.13.45.16.65.01.13-.14.24.03.44l.06-.12.15.13.25-.13.03.19h.25c.08.25-.19.16-.19.38.15.06.34-.18.36-.18.21-.05.4.11.52-.03-.52-1.09-.57-2.44-.28-3.59.21.4.15.89.23,1.33.09.56.22,1.14.48,1.65.12.23.34.39.39.65.19-.09.17-.25.19-.43l.43-.07.03.13.06-.13.34.13-.06.31c.11-.06.2-.02.19.12l-.19-.06v.19s-.58.07-.58.07l-.1-.25c.11.08.31-.05.22-.19-.16.21-.48-.01-.41.31l.13-.03-.06.15.12.07c-.18-.01-.35.08-.4-.12-.3.28-.48,0-.72-.19l.12.31c-.05.06-.97.17-.97-.06-.5.26-1.21-.08-1.78-.06v-.25s-.25.06-.25.06l.12.12-.4-.06.03-.38-.31-.03.12.22-.19-.12.06.19-.94-.25.06-.19c-.31-.08-.35-.26-.68-.09-.16.08-.72.6-.75.75-.03.16.43.63.24.9-.87-.91-2.15-1.18-3.15-.31-.19.17-.47.68-.53.72-.14.08-.58.02-.85.09-.95.26-1.47,1.41-1.59,2.32.36-.04.67-.1,1.04,0,.05.01.54.14.4.26-1.02.12-2.22.76-2.59,1.75-.24.65-.22,1.62.04,2.27.08.2.25.34.3.54-.09.08-.84-.34-.81-.56h-.09c-1.02.8-1.22,2.35-.37,3.37.11.13.44.45.59.48.07.01.12-.08.16-.07.05,0,.1.07.18.08.13,0,.7-.07.73-.04.02.02-.04.23.16.25l-.1-.25.25-.06c0,.28-.04.56-.06.84-.01.19.16.44-.13.6l-.12-.25v.31s-.25.03-.25.03l.12.03v.19c.05,0,.17.01.19,0,.14-.11-.16-.11-.12-.19l.5.06c-.22-1.22,0-2.39.81-3.35-.53-1.62.27-3.66,1.94-4.22-.63-1.75.27-3.54,2.11-3.92,1.07-.22,2.52.15,2.7,1.39-.07.11-.14-.02-.19-.06-.35-.27-.5-.42-.95-.55-2.04-.57-3.7.94-2.92,2.99l.91.26c.35-.35.68-.66,1.17-.81.29-.09.9-.26.99.14-1.47.24-2.21,1.59-2.06,3-.19.05-.32-.19-.39-.33-.18-.41-.17-1,.07-1.39-.53-.33-1.24-.11-1.71.23-.88.63-1.22,1.78-1.1,2.83.02.2.19.54.17.68-.02.13-.47.66-.56.88-.28.61-.3,1.26-.24,1.92l.09-.44.16.16-.12.09.44.31-.12.19c.47-.11.82.54,1.25.5v.25s.19-.09.19-.09l-.04-.09,1.25.28.28-.1c0,.45.22.03.34,0,.19-.05.13.2.34.13l-.1-.19c.13-.36.32-.03.54.09.14.08.39,0,.43.28l.06-.12c.2-.05.06.17.22.13.08-.24.21-.15.09.06.2-.22.25-.03.34-.03.63,0,1.24.03,1.75-.28l.03.15.13.03c0-.12.05-.25.15-.32.25-.16.48.11.53-.28.08-.06.52.05.64.1.03.01.37.23.39.24.1.02.45-.07.47-.05.13.14-.29.1-.03.25l.13-.25c.42.15.87-.27,1.21.13l-.12-.22c.11-.15.32-.11.45-.16.08-.03,0-.25.3,0v-.28s.19-.04.19-.04l-.06-.19c.17.09.33.09.5,0l.06.19-.19.06c.12,0,.24.04.37.02.17-.03.12-.2.32-.15l.06.25.13-.75,1.19-.13-.07-.15.13-.04v-.12s-.13-.04-.13-.04l.07-.27-.44.06s.05-.23.07-.27c.07-.1.18-.07.18-.17l-.29.19-.21-.07-.09.56-.29.06.27.19c.18-.13.13-.27.18-.44.07-.24.13.16.23.22l-.19.22h.31s-.87.12-.87.12l.03-.19-.21.2-.02.49c-.37.04-.32-.12-.5-.28-.2-.18-.38-.23-.37-.53.49.05.25-.32.31-.62-.28-.06.03.38-.07.49l-.24.07c-.09-.56-1.17-.78-1.65-.74-.3.03-.55.2-.85.18.17-.88.18-2.14-.6-2.74-1.38-1.06-3.83-.56-3.64,1.46.04.43.26.72.37,1.09-.3.06-.57-.1-.84-.12-1.07-.1-1.78.29-2.53,1-.04-.41.29-.74.42-1.11.12-.34.17-.88.07-1.23-.06-.22-.19-.34-.25-.54.51.14.82.75.81,1.25l1.25-.19c-.27-1.99,1.68-3.31,3.5-2.75-.1-.87.56-1.58-.4-2.13-.18-.1-.74-.23-.82-.31-.12-.12.05-.16.14-.17.66-.11,1.15.11,1.67.47,1.63-1.9,4.16-.37,4.1,1.88,1.2.11,2.21,1.41,1.71,2.57-.22-.33-.25-.74-.48-1.08-.47-.7-1.39-.96-2.11-.48.17-.68.26-1.59-.14-2.21-.16-.25-.61-.65-.89-.73-1.58-.45-2.25,1.07-2.04,2.4,1.11.56,1.56,1.65,1.44,2.86.68,0,1.39.14,1.84.69l-.03-.25c.39.21.91-.17,1.12.29.06.14,0,.43.19.39l-.02-.19.08-.06c-.16,0-.17-.18-.24-.29l.02-.09c.14.01.24-.19.26-.19.1,0,.24.19.4.13l-.12-.19c.42-.2.51.27.94.19-.15-.17-.28-.32-.15-.56.02-.05.73-.69.77-.71.07-.03.27.04.37-.04v-.18s-.09.13-.09.13c-.22.06.05-.31.04-.37l.12.06v-.25c.1-.03.03.23.19.12.01,0-.06-.3-.05-.34,0-.02.2-.08.11-.28l.19.06.06-.38c-.24.17-.08-.2-.06-.31l.25.71-.25.1.19.19.06-.19c-.01.18.08.35-.13.41l.13.03c-.08.12.02.33,0,.4-.03.12-.25.05-.18.22h.12s-.23.26,0,.31c.3-1.08.11-2.24-.59-3.13l-.91-.81c.69-.04,1.32.4,1.72.94,1.35-1.32,1.82-4.17-.47-4.78.06-.12.65-.22.81-.32.28-.16.51-.76.55-1.07.21-1.54-.63-2.56-2.19-2.52l-.1-.09c.46-.43,1.35-.35,1.87-.06,1.4.79,1.44,2.98.58,4.18,1.53,1.39.75,4.07-.61,5.31.22.56.23,1.08.21,1.67,0,.06-.08.09.05.17l.16-.09c-.26-.11-.02-.58-.13-.84l1.22.12c.06-.16.24-.17.4-.18l-.03.19c.3-.05.15-.16.22-.22.06-.06.52-.29.59-.29.07,0,0,.16.1.13-.06-.21.08-.22.13-.37.17-.05.14.12.13.22-.01.08-.21-.03-.19.09.65.04.47-.12.58-.51.1-.35.3-.5.3-.96,0-.43-.2-.72-.31-1.11.44-.45.75-.71.81-1.39.07-.87-.32-1.49-.56-2.28.53.2.86.78,1.05,1.29.18.47.1.79.2,1.27.7-.09,1.57.35,1.84,1.01.43,1.03-.37.14-.6-.03-.81-.59-1.47-.4-2.04.37.29.61.3,1.31.12,1.96-.09.32-.28.57-.33.89.2.08.54-.03.59.19.06-.18.38-.16.6-.22.2-.06.32-.18.56-.16l-.06.19h.12s.06-.25.06-.25l-.19-.06c.12-.13.38-.06.44-.09s0-.12.02-.14c.08-.09.52-.46.42-.08l.13-.04.06-.21c.15-.03.1.04.15.13l.28-.12-.06.19h.19s0-.22,0-.22l.85-.35c.2.19.1.26-.05.39-.05.05-.21.11-.01.11l.72-.66-.25-.09.06-.31.19.06c-.09-.28.31-.32.25-.62l.12.25c.15-.7.19-1.36-.05-2.04-.17-.48-.57-.92-.76-1.39,1.21.3,1.72,1.9,1.62,3.02-.06.63-.36,1.14-.55,1.73l.13-.25.19.19c-.02-.2.12-.24.25-.34l-.31-.03c.05-.3.62-.22.69-.5l.19.12-.12-.22c0-.09.6-.12.4-.41-.19,0-.37-.04-.5.12l-.03-.19-.31.12.04-.19h.21s-.03-.12-.03-.12l-.16.06v-.37s.12.03.12.03l-.06.16c.25.03.57.4.56-.06l-.09.13-.22-.1.25-.09c-.36-.31-.25-1.09.31-1l-.19-.19c.2.03.1-.19.14-.33.05-.17.13-.35.16-.53.2-1.42-.78-3.71-2.5-3.44-.72.11-.6.67-1.17.86.26-1.46,0-2.61-1.32-3.4-.09-.05-.73-.25-.62-.41,1.46-.42,2.57,1.01,2.75,2.31,2.18-.39,3.79,2.01,3.38,4,.06.07.5-.24.31-.37l.12.06.13-.28h.44c0-.12-.19-.24-.19-.26-.03-.23.54-1.04.38-1.4l.07.12.18-.06c-.08-.15-.31-.15-.25-.37.3.22.38-.13.59-.06.04.01.38.58.35.68h.37c.06-.08-.39-.5-.47-.56-.15-.13-.46-.43-.66-.34-.14.06-.16.26-.19.28-.05.05-.3.14-.37.25-.07-.67-.07-1.28-.3-1.92-.41-1.17-1.4-1.88-2.58-2.14-.05.42-.11.94-.5,1.19-.03-1.49-1.06-2.79-2.44-3.28-.13-.04-.7-.22-.78-.22h-1.03c.05.38.1.75-.03,1.12-.69-1.75-2.56-2.46-4.33-1.96-.21.06-.65.32-.8.33-.24.01-.25-.29-.46-.22.13.11.21.17.14.34l.11.07c-.32.01.2.33.06-.12l.59-.12c.14.04.07.27.13.37.04.07.21.03.16.22l-.13.09c1.99.16,3.76,1.82,3.65,3.88.03.05.71.15.86.2,1.01.34,1.83,1.56,1.36,2.61-.16.02-.1,0-.13-.09-.44-1.45-1.34-2.31-2.94-1.72.45-1.21-.04-2.64-1.03-3.44-1.25-1.01-3.1-1.05-4.59-.63-.05-.22.5-.42.5-.48l-.29-.65-.12.12-.35-.18v.31s.22-.12.22-.12c.1.11-.37.72-.34.75l.31.07-.06.31c.15-.02.2,0,.23.16-.02.17-.28.12-.39.08-.04-.01-.03-.11-.07-.11-.1-.01-.23.08-.34.07.33.2.21.51-.04.74l-.28-.12.04.19h.21s-.21.35-.23.42c-.04.15.13.25-.08.3.14.2.28.44.09.66-.01.01-.26.19-.28.19.08-.02.17,0,.25-.06,0,.29-.13.5-.44.5l-.06-.37c.12.06.23-.06.25-.06ZM43.44,16.69c.33.03.57.32.86.49,6.36,3.65,10.76-4.15,6.18-8.24-1.73-1.54-6.58-2.63-8.94-3.43-1.98-.68-4.7-2.15-6.77-1.52-1.88.57-5.63,4.85-6.3,6.7-.72,1.99.18,3.1.4,4.98.09.75-.02,1.66.08,2.36.04.33.24.68.62.5.07-.03.3-.34.37-.44.35-.43,1.71-2.4,1.67-2.86-.02-.26-.25-.73-.29-1.08-.24-2.4,1.2-4.62,2.77-6.27.19-.08.05.35.03.41-.3.94-1.02,1.93-1.41,2.91-.86,2.18-.67,4.59,1.65,5.69-.29-1.29-.26-2.46.22-3.69.38-.98,1.76-3.3,2.59-3.91.09-.06.13-.12.25-.09.12.13-.73,1.52-.84,1.75-.94,1.85-1.76,3.49-1.26,5.64.28,1.23,1.1,2.35,2.48,2.3-.71-1.5-.6-3.01.11-4.48.25-.52,1.81-2.93,2.29-3.02.19-.04-.02.41-.06.5-.82,1.99-2.47,3.62-1.66,6.03.55,1.64,2.66,2.54,4.25,1.93.72-.28,1.4-1.01,1.3-1.83l-1.08-.76c-.31.15-.61.42-.95.48-.19.03-.65.1-.64-.17,1.02-.55,1.96-1.52,2.19-2.69.13-.02.1-.01.14.08.08.18.13.57.11.77-.03.35-.25.65-.38.97ZM52.75,15.75c1.17.17,2.12-.23,2.7-1.27,1.44-2.58-.06-6.79-2.55-8.22-1.28-.73-3-.77-3.71.74,3.37,1.32,5.1,5.43,3.56,8.75ZM36.37,19.5c-.52-.08-.86-.53-1.22-.87l-1.72,2.03c1.05.53,2.32-.31,2.94-1.16ZM30.81,22.69c-.64-.76-2.96-2.44-3.94-2.03-.04.02-.54.59-.63.69-.22.26-.35.5-.52.76-.1.16-.45.21.08.29.09.01.17-.05.07.1l-.34.25-.09-.12c-.03.1-.11.28-.19.35-.11.1-.24.05-.25.15.28.1.57.2.83.32.92.42,1.48.73,2.23,1.4.31.28.64.55.94.84.2-.44.57-.95.93-1.26l-.06-.18c.43-.07.56-.75.93-.95.03-.24-.18-.26-.33-.36l-.09.12c-.01-.18.24-.5.44-.38ZM31.19,31.13c-.79-.23-1.63-.26-2.43-.06-.14.73-.03,1.44,0,2.17l.3.13c-.07-.2-.04-.24-.25-.28v-.61c.25-.17.52-.14.44-.54h-.25s.19.22.19.22h-.22s-.16.09-.16.09l-.06-.25.19.06.06-.19-.25.06.06-.69.06.25.19-.03-.25-.34c.62-.12,1.25-.12,1.87-.06l-.12.07.09.31.03-.25.25.25-.12-.31c.16-.03.28.25.37,0ZM31.37,31.87l-.25-.37c-.5.36.1.64.44.78-.14,0-.1.18-.16.22-.12.08-.38-.03-.34.18.63-.19,1.27-.29,1.94-.25l-.19-.12h.25s-.19-.06-.19-.06c-.09-.08.33-.26.03-.31l-.21.16.05.28c-.44-.35-.94.45-1.19-.25l.24-.06.07.12v-.37c-.27.1-.37.43-.69.25l.19-.19ZM20.93,33.95s-.16-.03-.17-.01c-.14.11.22.11.12.25l-.62.13.06-.19c-.54.17.39.47.47.18l.28.13c.05-.07-.07-.44-.14-.49ZM46.94,40.75c-.08-.17.11-.36.11-.46,0-.15-.23-.34-.17-.54-.11-.01-.06.15-.06.22,0,.17.13.26-.1.41-.06-.22-.55-.28-.71-.11,0,0,.02.18-.01.24l.31-.25-.03.19c.11-.08.39,0,.48.06s.03.23.17.25ZM45.99,40.57h-.15c.06.22-.04.31-.13.06l-.16.13c0,.16.3.05.31.06l-.06.18.12.04-.38.16c.4.05.71.53.88.88h.06c.02-.27.2-.09.38-.19v.19s.25,0,.25,0l.06.12c.08-.16-.13-.2-.12-.22.01-.08.2-.33.19-.35l-.19-.06c-.04.06.07.32-.06.31-.02-.21-.38-.12-.31-.44l.31.12c.08-.08-.3-.41-.43-.24v.24s-.29.06-.29.06c-.14-.07-.06-.24-.1-.33-.03-.07-.18-.04-.12-.23l.25-.13-.31.06c.04-.1.08-.37,0-.43ZM47.81,41.94v-1.19c-.2.11,0,.49-.06.69l-.06-.25c-.22.17.07.31.07.47,0,.22-.08.09-.13.22l.19.06ZM46.75,40.94s-.17-.21-.25-.09l.28.33.34-.3c-.07.02-.32-.06-.35-.06-.05.02-.02.11-.03.12ZM45.13,44.13c.04.15.55.09.62.03.29-.26.41-.93.37-1.31s-.57-1.88-.87-.98c.39-.15.46.06.62.37-.15-.06-.19.11-.23.12-.09.03-.39-.18-.33.06.21.06.33.22.56.13l.06-.19c0,.2.19.4-.06.47l.19.03-.06.69h-.31s.12-.44.12-.44c-.19.05-.32.09-.41-.13l-.03.19c-.13-.1-.15-.11-.31-.06l.06.19h-.24s-.06.21-.06.21l-.19.04c.09-.15-.04-.26-.05-.35s.14-.19.05-.33h.31s-.06.19-.06.19h.19s0-.21,0-.21l.19-.1-.25-.13.31-.03c-.12-.17-.28-.03-.44-.03l.06.12c-.22-.04-.24.25-.5.19.1-.17-.02-.32-.13-.47l.03-.15c0,.21-.28.2-.33.26-.06.07-.02.49-.2.58.27.18.39.08.44.47l-.25.09c.1.11.14.21.06.34.41.07.04-.3.06-.31l.41-.11.23.42.12-.06c0,.09.02.19,0,.27-.02.07-.15,0-.13.1.1.02.25-.04.28-.12s-.19-.14,0-.25c.04.09.2.17.22.03,0-.04-.27-.01-.03-.22l.16.31-.25.06ZM47.62,41.94c-.27-.03.04.33,0,.52,0,.05-.13.04-.13.08,0,.06.09.32.12.36.07.09.24.02.34.04.05,0,.05.2.23.12l.06-.37c-.06-.07-.43.39-.6.06l.1-.72-.13.16v-.25ZM48.56,43.38c-.12,0-.26-.03-.3.1-.03.08,0,.19,0,.27l.19-.06c.12.14-.23.22-.12.31.13.11.25-.16.31-.22l-.13-.07.05-.14h-.11s.12-.19.12-.19ZM47.73,44.21c-.06-.05-.14-.1-.23-.08l.12.21-.17.19.21.28.09-.12.19.19c.04-.11-.11-.16-.1-.22,0-.11.21-.18-.1-.45ZM47.05,44.2c-.11-.06-.46-.04-.42.17l.37-.06-.12.09.16.22.16-.1c0-.06-.11-.3-.14-.32ZM49.25,44.38c-.06-.08-.31.23-.29.28l.1.32.19-.03v.31s-.12-.19-.12-.19l-.06.25h.19s-.12.12-.12.12l.19.06-.06-1.12ZM44.25,44.63l-.46.32c-.11.13-.17.21-.1.37l.12-.03-.06-.16.11.05.2-.17-.12.22.16.16.03-.12c.19-.06.06.12.19.12.14-.3-.22-.41-.06-.75ZM46.46,45.04c-.05-.06-.02-.15-.12-.22-.26-.19-.43.11-.65.19l.06.37.06-.31.43-.06v.18s.38,0,.38,0c0-.09-.12-.09-.17-.14ZM48.62,45.37c-.09-.26-.27-.38-.41-.06-.07.23.29.24.29.44l.12-.19.16.3.25-.12.06.12.16-.06c-.06.2-.1.46-.12.66,0,.07-.06.22.05.21l.13-1.12-.1.13-.39-.07-.17-.49.03.44-.27-.06c-.13-.04.02-.29.08-.25l.13.12ZM47.25,45.19h-.31s.06.19.06.19l-.69.06-.06.31.25.06.03-.19c.28.13.3.16.53-.06l-.03.19c.33-.09.22-.18.43.04.03.03.1.02.1.02.08.13-.1.12-.11.15-.02.1.08.82.05.85l-.25-.12v.24c-.15-.01-.4.21-.17.18s.21.08.42.08c.13-.13-.02-1.39.25-1.59l-.12-.06c.19-.15.12-.46-.12-.25l.03.22-.34-.12.06-.19ZM42.35,45.52s-.16-.03-.2-.08v-.19c-.22.35-.58.45-.84.75.24-.05.48.27.65.29.2.02.26-.27.53-.16-.12-.21.08-.42-.15-.6ZM43.62,45.38c-.33-.14-.29.04-.36.06-.08.03-.22-.06-.21.06.23.06.37.38.63.16l-.19-.06.11-.04.02-.18ZM44.64,47.77s.15-.08.22-.24c.23-.48.43-1.44.1-1.9l.09,1.13-.12-.06.06.19-.19.03.13.07v.21s-.19,0-.19,0l.06.25-.22-.07-.12.13-.16-.06c-.06.18.15.11.19.25l-.25.25.25.03c-.14.04-.14.21-.19.34.25-.09.25-.4.33-.54ZM35.81,45.81s.05-.15-.06-.12c.07.28-.08.31-.22.5l-.04-.11-.24.05.19.06-.12.19c.1.09.66-.5.75-.59l-.12-.09c.04.08-.05.2-.13.12ZM48.31,45.94v-.12s-.31-.07-.31-.07c-.06.13.11.14.12.19-.16.06,0,.41,0,.53,0,.26,0,.52,0,.78.24-.07-.02-.46.06-.56.22-.04.02.11.16.19.05-.16.12-.14.28-.12l-.03-.12-.14.05-.05-.12-.21.07s.02-.4,0-.5c.16.1.15.09.22-.07l.4.06-.38-.12.06-.19s-.17.1-.19.12ZM43.19,45.88l-.5.06.06.25c-.24.03-.37.23-.63.13l.19.87c.11.01.05-.13.07-.21.05-.13.15-.1.18-.01.02.07-.13-.04-.1.09.06.24.26.31.16.5h.19s-.04-.19-.04-.19c.07-.02.44-.2.35-.31-.12-.05-.32-.11-.41-.19s-.03-.14-.05-.18c-.02-.03-.13.03-.1-.07.24,0,.14-.25.28-.37.1.07.16.27.28.09l-.11-.32.17-.15ZM38.44,45.94l-.25.03c.2.18.31.32.28.59.35-.18.28-.4-.06-.5l.03-.13ZM44.25,46.31l.12-.16-.12-.15-.06.22-.19-.04c.04.22-.01.25-.19.34v.09c.24.01.12.2.19.38.11.02.03-.11.08-.17.14-.18.43-.39.67-.33l-.16-.19-.22.12c.03-.13-.12-.12-.13-.12ZM41.69,46.81c-.16-.4-1.98-.58-2.12-.44l.03.12.24-.07.07.13c.48-.15,1.2-.25,1.34.37l.16-.25.28.12ZM43.4,46.4s-.04-.15-.09-.06c.11.36.14.16-.02.34-.06.07-.05.1-.04.19l.18-.05.04.12.16-.25-.12.03c.05-.2-.02-.21-.09-.31ZM34.25,46.81c.08-.14.06-.26-.12-.25l.03.25-.47.18.03-.31-.47.44.33.04,1.17-.42c-.07-.19-.46.1-.5.06ZM36.56,46.69l-.12.03.06.16c-.17,0-.29.06-.34-.12l-.16.19c.27-.07.5.09.72.12.4.05.82-.11,1.21-.18l-.25-.19-.04.19-1.09.06v-.25ZM40.44,46.75l-.44.06.06.12-.62.06s.05-.24-.1-.18c-.23.1.09.3.03.37-.26-.22-.1-.02-.37.03.06.16.51-.01.62-.03.03.11-.15.03-.12.09.07.18.38-.07.55-.08.19-.02.44.17.45-.13l-.25-.25.19-.06ZM46.81,46.88h-.12v.06h.12v-.06ZM43.81,47.13c-.16-.05-.16.18-.23.19-.1.01-.52-.27-.52.06.35-.17.65.24,1,.12.05-.22-.19-.07-.29-.19l.04-.19ZM48.87,47.31c-.07-.08-.34-.21-.37-.03-.02.1.26.27.14.46.25.01-.03.1-.07.24-.03.11-.01.22-.01.33l.07-.11c.19-.08.22.06.24.23l-.15-.12-.28.19h.31c-.12.24.24.03.16.38-.02.08-.1.15-.16.21l.12.16c-.22-.11-.24-.23-.47-.06l-.25-.25c-.04.12-.09.14-.22.13l.47.44.06-.25.19.37.16-.12c0,.13,0,.29-.06.41s-.16.13-.19.2c-.07.16-.08.51-.19.7.58-.71.66-1.63.55-2.52-.02-.17-.14-.39-.14-.54,0-.18.19-.37.16-.57l-.06.12ZM40.62,47.5s.01-.09-.01-.11c-.03-.02-.1.09-.14-.08l-.16.06.06.25c-.4-.13-.12.06-.41.19l-.03-.19-.14.12-.18-.05.12.19-.19.19.19.06.06-.31c.14.08.24.07.34-.06.09.09-.07.3.16.25-.06-.35.1-.2.17-.26.05-.04,0-.22.14-.24-.12.21-.04.44-.09.63-.04.16-.2.06-.16.25.09.02.12,0,.18-.04.21-.14.31-.31.44-.39v-.12s-.31.06-.31.06l.19-.37c-.06-.02-.22.02-.25,0ZM48.19,47.31c-.11-.1-.1.03-.13.09-.07.16-.25.56-.08.67.1.06.43-.09.25.17-.01.02-.19,0-.08.07l.34-.07v-.31c-.2-.01-.31-.02-.37-.25.01-.01.37.09.37-.06l-.22-.06.03-.12c-.31.03-.1-.11-.12-.13ZM31.38,48.56c.13.12.72-.77.76-.89.03-.08.06-.15.05-.23-.1-.03-.03.11-.1.13-.06.02-.14,0-.21,0,.22.24.03.22-.04.33-.17.26-.13.13-.28.28-.08.08-.12.29-.18.39ZM38.25,47.5l-.75.13.38.56v-.25s.31.19.31.19c-.03-.18.1-.04.19-.16l-.31-.03.25-.28-.11-.04.05-.11ZM37.94,48.44h-.09c-2.04-1.77-5-.69-6.35,1.41-.62.03-1.18.23-1.77.4-.24.66-.66,1.41-1.17,1.91-.27.27-.83.45-.72.91h-.15c-.21.61-.27,1.19-.07,1.81.12.01.05-.13.04-.2-.01-.29-.18-.54-.11-.86l.31.06-.25-.16.13-.53c.45-.11.49.53.9.62-.06.23.02.07.17.1.22.05.43.2.68.15l-.03.25c.08-.13.2-.29.37-.23.04.01.01.11.12.12.16.01.32-.07.47,0,.02-.05-.23-.33.25-.16.18.06.33.3.59.1l.03.19.13-.19.31.12c-.01-.63-.95.29-1-.43.66-.22,1-.75,1.36-1.3.07-.11.15-.37.19-.42.09-.1.2.06.19-.2.19-.07.35.04.55-.01.19-.04.57-.2.68-.33.4.18.2-.06.37-.18.09-.06.23-.07.34-.07l-.12-.19h.25c.02-.11-.11-.04-.12-.06-.06-.07.21-.11.25-.13l.03.25c.32-.4.58-.88.72-1.37.36.29.23.8.12,1.19.5.11,1.02.1,1.5-.06l-.22-.12-.03.12c-.19.06-.06-.12-.19-.12.06.24-.11.23-.27.13-.06-.04,0-.15-.1-.13l-.03.19c-.13-.02-.4.06-.46-.11-.11-.61.16-.35.32-.46.04-.03.04-.13.08-.13.08,0,.18.1.3.06.08-.02.09-.14.15-.18.07-.04.52-.3.55-.31.02,0,.07.18.32.18.02,0,.07-.21.28-.12-.08-.26-.45.05-.5,0l.23-.37c.18.05.32.02.28.25l.19-.13-.03-.12h-.22s0-.25,0-.25c.25.04.33.27.62.28l.12-.16-.19.03v-.22c-.19.12-.23-.04-.37-.12l.03.19c-.26-.03-.01-.3-.15-.47l.12-.15.19.22-.19.03c.15.3.27-.06.5,0l-.3-.13-.07-.55-.06.19ZM39,47.81l-.06-.12c-.07.25.16.12.12.31l-.25.1.16.28.16-.06-.11-.07v-.17s.23-.07.23-.07v-.31s-.25.12-.25.12ZM43.87,47.81v-.12h-.06v.12h.06ZM46.12,47.81l-.25-.06-.06.31-.12-.06c-.04.29.49.59.19.84l.31.09-.25.13c.12.43.22.02.28.01l.47.05-.37-.06.13-.37c-.16-.02-.19.13-.19.25l-.25-.06.19-.06-.09-.5c-.08-.11-.34.02-.28-.15.02-.06.13-.1.07-.21.03-.03.39.02.24-.13ZM39.5,48.19c-.36.07-.31.35-.25.63l-.12.06h.25s-.06-.19-.06-.19l.12-.03-.19-.19.25-.28ZM47.64,48.49c-.03-.08.11-.19.02-.24-.21.21-.19.52-.52.58l-.07.39c.52.2.29,0,.44-.12.06-.05.23-.07.31-.09l-.12-.12c.28-.07.52,0,.75-.19,0-.09-.28-.1-.35-.1-.1,0-.19.05-.29.04-.01,0-.15-.13-.16-.14ZM13.94,48.63l-.74.07-.07.15.12.09.25-.19-.12.25c.21-.12.16.21.37.19l-.19-.28.37-.03-.19-.09.19-.16ZM43.23,48.83s-.16-.09-.17-.08c.09.36-.12.18-.13.19-.04.24.18.04.19.19l-.69.19.87-.19c.01-.1-.01-.22-.08-.29ZM39.5,49.38s.11.03.13-.04l-.07-.31.19-.03s-.19-.22-.25-.09l-.06.25-.44-.03.34.38c.1.03.12-.1.16-.13-.04.02-.13,0-.19,0v-.06s.25-.06.25-.06c0,0-.06.12-.06.12ZM42.25,49l-.44.06.06.12-.44.06.87.13-.06-.37ZM44.75,49.19c-.27-.08-.21.2-.26.24-.06.05-.27-.07-.3.2.37,0,.94-.03.75.5h.12s.13-.16.13-.16l-.13-.19.13-.06c-.11-.14-.3-.13-.25-.34l-.12.19-.06-.37ZM38.5,49.88l-.06-.31c-.03.07-.04.28-.08.3-.05.04-.2-.05-.17.07l.62.06v-.25s-.06.12-.06.12h-.25ZM46.62,50.44c.08-.08.08-.82-.12-.62-.12.12.17.12.13.21l-.07.41-.19-.31v.62s.06-.25.06-.25c.09.06.2-.01.27,0,.06.01,0,.19.17.13v-.19s-.25,0-.25,0ZM42.8,50.11l-1.11-.11c-.05.22.32.1.47.13.11.02.19.13.32.13.18-.2.16-.05.31-.07.11-.02.18-.12.28-.13-.15-.23-.25.04-.26.05ZM10.75,50.31v-.16s-.06.12-.06.12l.31.91.13-.37-.19.06-.13-.47s.49-.12.07-.21v.11s-.13,0-.13,0ZM13.69,50.5s.26-.28.06-.31c-.13.45-.23.08-.5.09.51.49,1.54.61,2.06.09l-.47.19-.06-.13-.03.19-.43-.18-.1.18-.03-.19-.5.06ZM39.53,50.63c-.27.04-.62-.03-.91,0,0,.08.3.12.35.12.31,0,.5-.19.71.23l-.19.09c.29.11.37.06.3-.26-.02-.07-.14-.14-.11-.17l.31-.06c-.07.35.29.14.31-.06.13.1.15.11.31.06v-.37s-.9.41-1.09.44ZM45.94,50.37h-.37c.03.26-.36.46-.09.69.18.05.63-.49.47-.69ZM45.17,50.74s0-.19-.04-.21l-.38-.09.19.31c-.19-.02-.06.09-.08.11-.03.05-.22.04-.17.2l.19-.06-.03.12h.15s.07-.23.07-.23l.19.04-.19-.13c-.03-.1.09-.04.11-.07ZM26.37,51.25c.24-.45-.05-.72-.5-.44.08.21.43-.07.5.19l-.19.06c.2-.04.06.18.19.19ZM11.75,50.75h-.12s-.06.19-.06.19h.12s.06-.19.06-.19ZM12.37,50.87c-.18-.15-.22-.16-.37.03l.19.03.07.24.37-.06v.14s.12.05.12.05l.22-.31c.21.12-.18.51.22.44l-.12-.15.18-.22c-.22-.05-.81-.52-.88-.19ZM40.63,51.12c.16-.25-.25-.44-.3-.21l.05.15h-.38c-.02.1.08.03.11.09.02.04.05.23.02.28h.19s-.12-.31-.12-.31l.59.13.03-.19-.19.06ZM43.94,50.88l-.37.06.12.06-.1.12-.34-.12.06.18-.12.07.22.06c.04-.21.22-.07.33-.13.02,0,.15-.25.2-.3ZM47.88,51.31l.03.12c.22-.2.41-.33.09-.56l.12.22s-.19.13-.25.16c-.07.03-.12.04-.19.06,0-.04,0-.08,0-.12l-.38.09-.06.35h.31s-.25-.31-.25-.31l.31.12-.03-.12s.06,0,.09,0c0,.04,0,.08,0,.12l.19-.12ZM24.06,51.44c.1-.07.5-.36.31-.47l-.38-.03.06.5ZM21.62,51.31c-.24-.04-.18-.13-.12-.31l-.25.06.12.19-.31-.12c-.06.21.08.22.13.37l.15-.19.16.06-.12.12c.14.02.27-.02.25-.19ZM16.31,52.56c-.18-.5-.14-1.27-.69-1.5l.25.5-.17-.03-.05-.09-.16.19.5-.06.19.78-.13.1.25.13ZM20.19,51.75l-.31-.68c-.1-.02-.04.09-.11.12s-.18.05-.27.07l.22.25.21-.06c.08.22,0,.36-.06.56.21.04.07-.27.31-.25ZM27,51.25c-.5-.06-.23.43.13.31l-.12.19h.56c-.04-.17-.24-.09-.33-.13-.06-.03-.08-.17-.24-.12l.06-.12-.19-.03.13-.09ZM41.5,51.75l-.41-.12c-.06-.08.16-.39-.15-.38-.09.45-.04.52.39.58.09.01.13.07.17-.08ZM14.81,51.38c-.34.07-.82-.21-.94.22l.12.1.06-.25c.15-.07.11.13.16.13.1,0,.13-.1.2-.11.12-.03.36.04.39-.08ZM43.8,51.39l-.3-.07v.37s.25-.25.25-.25l-.06.56.56-.06-.35-.12-.1-.43ZM23.37,51.44l-.25.23.07.21c-.38-.09-.49.22-.87.12v-.18s-.13.03-.13.03l.03.16c-.12-.05-.31-.02-.42-.07-.07-.03-.09-.16-.27-.21-.04-.01-.41-.08-.4.03.54.25,1.04.38,1.65.31.39-.05.92-.19.6-.62ZM18.62,51.75l-.03-.12c-.39.28-.89.27-1.34.34l.31.03-.19.19.62.13-.37-.31c.3,0,.6-.19.87,0,.05.06-.19.29.07.24.03-.17.06-.32-.06-.47l.12-.03ZM37.31,51.81c-.69-.11-1.4.13-2.09-.11l-.41.42c.22-.07.33-.04.37-.29.5,0,1,.12,1.51.04v.25s.22-.12.22-.12l.12.18.22-.06c-.09-.14-.01-.19.06-.31ZM39.19,51.87c-.2.12-.16-.17-.34-.19-.27-.03-.29.31-.13.25l.06-.13.03.25c.18-.15.35.13.38.31.19-.06.08-.28-.05-.34l.05-.16ZM14.25,51.81l-.19-.06c0,.31-.08.31-.35.37l-.06-.12-.03.24-.31.07.06.25.19-.06.19.69-.84-.19.03-.12-.25.06-.03-.25-.16.25c.42.15.85.33,1.31.31.06-.05-.42-.92-.13-1l.13.12-.06-.19c.27-.07.46-.07.5-.37ZM26.56,51.94c-.24-.14-.2.14-.47.18v.19s.41.12.41.12c-.03-.08-.08-.33-.06-.4.02-.07.15,0,.12-.1ZM38.19,52.19l-.06-.31c-.12.09-.28.03-.39.06-.05.01-.04.12-.08.12-.08,0-.18-.13-.27.03l.34.03-.03.19c.17-.12.08-.27.34-.31l-.03.19h.19ZM40,52.06h-.19c.13.37,0,.75,0,1.12l1.38-.06c-.09-.2-.41-.01-.59,0-.24.02-.48,0-.72,0l.12-1.06ZM11.97,52.46c-.1-.08-.22-.21-.35-.21.2.3.49.49.81.62l.06-.19c-.26.11-.36-.1-.53-.22ZM42.94,52.25c-.31.17-.61.03-.94.09l.06.22.12-.19c.3.28.52.23.75-.12ZM24.56,52.31c-.27-.06-.05.34-.07.37-.02.04-.23.03-.18.19.18.05.09-.14.24-.16.07,0,.13.03.2.03l-.12.06.13.25.25-.22-.19-.22c.2-.03.28-.09.44.06l.25-.19c.01-.12-.12-.04-.21-.06-.06-.02-.02-.13-.14-.13-.12,0-.23.05-.35.07l.06.12h-.28s-.04-.19-.04-.19ZM37.94,52.38h-.31c0,.14-.01.17-.13.22l.12.13-.12.09.35-.06.09-.38ZM23.87,52.44l-.94.37c.27.09.5-.2.78,0l.08-.09c-.14-.22.11-.07.08-.28ZM19.75,52.5h-.25s.06.37.06.37l-.37.09.44.03.12-.5ZM38.95,52.86l-.17-.3-.09.25.19.03-.09.22-.16-.04-.15-.21-.03.19c-.11.03-.04-.08-.07-.11,0,0-.17.05-.24-.01l.24.29-.12.34.22-.06.03-.25.09.12.22-.19.03.19c.1-.04.03-.16.04-.18.06-.05.61-.16.49-.32l-.42.05ZM18.63,52.74l-.07-.09.06.28.62-.06c-.12-.2-.43-.22-.62-.13ZM22.12,52.75l-.81-.12.38.12c-.06.15-.04.21.09.31l-.03-.25h.19s0,.44,0,.44v-.25s.19,0,.19,0l-.13-.09.13-.16ZM24.43,52.95l-.36-.14c.12.14.08.37.31.31l-.44.22.31.13-.16.09c-.07-.24-.81-.26-.72.06-.3-.19.18-.42.43-.31.03-.14.1-.33-.03-.44l-.03.31c-.33-.21-.94.25-.44.47l-.19.09c.2-.02.22.14.33.21.06.04.19-.07.26.17l.22-.03c.03.19-.28.12-.31.16l.13.43,1.31-.12-.19-.09.44-.25c.04-.12-.29-.09-.3-.08-.12.07-.2.59-.55.38l-.06.12c-.16-.08-.57-.1-.59-.29.14,0,.26-.44.24-.46-.03-.04-.23-.03-.18-.19.23.15.25-.17.5-.12l-.12.12c.2,0,.63-.13.56.19.33-.21.31.09.41.12s.28-.09.4-.06c.04-.25-.14-.03-.24-.07-.01,0-.12-.16-.17-.21-.03-.03-.09-.02-.1-.03-.1-.16.13-.07.12-.19-.18.03-.19-.06-.28-.19l-.03.25c-.07,0-.14-.02-.21,0-.08.02,0,.15-.11.13l.25-.19c-.09-.12-.12-.16-.06-.31l-.18.07c.07.12.09.14-.06.12-.09-.08-.12-.35-.14-.36ZM26.75,53.13c-.43.06-.86-.07-1.25-.25v.25c.12-.07.34-.07.46,0,.08.05.07.35.23.22l-.12-.16h.37s.06.19.06.19l.13-.19c0,.38-.09.45-.37.67-.12.09-.29.05-.32.27.45-.14.81-.49.81-1ZM21.31,53.13l-.37-.07.06.25-.16-.19c-.16.26-.07.44-.47.37v.38s.19-.06.19-.06l-.03.12.22-.19v.11s.12-.04.12-.04l.07.18-1.06.19c.39-.01,1.33.02,1.65-.19.07-.05.09-.18.14-.19.08-.01.18.07.24.07.03,0,.22-.37.47-.25l-.03-.11c-.21.1-.08-.18-.22-.2-.03.36-.36.23-.38.25-.13.12.16.1.12.19h-.56s.06.25.06.25l-.31.06-.13-.31.17-.09-.05-.22.24-.07v-.24ZM37.61,53.3h-.14s-.19-.23-.19-.23c-.12.08.03.21-.16.19l.25.06c-.08.16-.24.05-.12.31.11.02.03-.11.07-.17.02-.03.17-.08.21-.08.15-.01.02.18.21.13v-.31s-.14.11-.14.11ZM22.62,53.12l-.29.17-.08.14c.22.04.32.11.5-.06l.03.12.16-.16-.31-.03v-.19ZM15.81,53.62l-.06-.44-.06.25c-.19.05-.06-.12-.22-.13-.19-.01-.13.11-.28.13.05.13.57.23.62.19ZM33.37,53.25l-.37.13v.18s.37.16.37.16v.16s-.19-.06-.19-.06l-.06.25.25-.12.06.12c0-.25.15-.45-.19-.5l.12-.31ZM36.56,53.62c.16.06.38.03.37-.19-.12.15-.45.07-.56.16-.18.13.1.11.11.12.03.02-.03.13.07.1v-.19ZM24.73,54.08s-.14-.02-.2-.08c-.09-.11-.07-.43-.35-.16l.11.25s-.18,0-.12.15l.19-.04.19.22c-.01-.15.12-.17.25-.19,0,0-.06-.15-.08-.17ZM37.75,54c-.28-.36-.25.29-.43.37-.33.15-.67.03-.98-.03-.07-.01-.17.05-.24.03s0-.16-.1-.13l-.06.19c.65.09,1.24.1,1.87-.06l-.31-.06.25-.22-.12-.09h.12ZM23.31,53.94l-.29.06.04.19s-.28-.12-.36.08c-.02.04.04.1.04.14-.02.14-.24-.06-.18.16l.44.06-.19-.12c.31-.08.26-.41.5-.56ZM24.12,54.37v-.25s-.06,0-.06,0l-.06.16.12.09ZM28.07,55.07c.17.11.28-.19.12-.26l-.19.12-.06.31-.13-.03c.31.61.93,1.25,1.63,1.41l-.44-.28.13-.07-.07-.21-.15.17-.22-.06v-.24c-.38.1-.27-.1-.29-.13-.21-.25-.52-.29-.33-.74ZM31.5,54.81c-.27-.09-.2.21-.25.25-.06.04-.24-.12-.31.03-.02.06.3.12.37.03l.06.37v-.37s.37-.03.37-.03l.38.34c.05-.16,0-.35.19-.29l.06-.21c-.17.1-.25-.02-.41-.07l-.03.13s-.16-.19-.25-.12c-.02.01.1.07,0,.09-.02,0-.05-.04-.08-.03-.05.01-.04.19-.23.12l.12-.25ZM29.06,54.88c-.13-.03-.17.13-.28.13-.1,0-.18-.17-.34-.06v.31c.1.01.03-.09.13-.14.07-.04.27-.02.36-.04l-.25.13.19.06-.19.19h.18s0,.19,0,.19l.16-.06-.02-.43.11-.04-.12-.04.06-.18ZM36.69,55.25c-.23.06-.45-.01-.67-.05-.12-.02-.08,0-.08.11h.5c-.11.1-.03.28-.19.25-.04.36.47-.27.44-.31ZM33.56,55.56c-.22,0-.4-.09-.6.06l-.12-.18-.34.19.53.07.53-.13ZM31.85,55.9s-.27-.23-.28-.22l.06.25-.16-.19-.28.44.19-.06.03.12c.1-.13,0-.2.22-.25l-.06.25.62-.06-.06.25c.2.05.11-.25.34-.19.05.01.13.14.09.19l-.12-.03.13.22.22-.14.03-.11c.15,0-.05.28.16.25.1-.02.15-.09.22-.16l-.12-.09h.31c.03.1-.24.04-.09.19.11.11.34.06.47.12v-.31s.25.06.25.06l-.06-.19.25-.06c.01-.12-.13-.05-.19-.03-.88.19-1.37.29-2.15-.25ZM35.85,55.84s-.15-.1-.17-.09l.06.19c-.23-.01-.28.09-.25.31l.62-.41-.19-.09-.06.19s0-.08-.02-.1ZM30.5,56.19c-.06-.23-.64-.16-.69-.03l.22.22.46-.19ZM29.84,56.47c-.04-.05,0-.12-.09-.1l-.13.37c.61.17,1.16.19,1.78.19s1.28.1,1.94.06c.2-.01.39-.07.59-.07-.14-.24-.44-.02-.6,0-.13.02-.27,0-.4,0l.03-.12-.09.12c-.44.03-.82-.19-1.25-.13l-.03-.19h-.22s.19.06.19.06v.19s-.37,0-.37,0l.12-.06-.09-.12-.16.06.06.12h-.69s.25-.06.25-.06l-.31-.22.19.03v-.12s-.31-.13-.31-.13l.05.11-.18.25h-.24c-.02-.07.05-.16.05-.21,0-.03-.07-.03-.09-.06Z"/>
  <path d="M48.31,45.94s0,.15-.12.19c0,0-.05-.17-.06-.19h.19Z"/>
  <path d="M47.88,51.31s0-.06,0-.06c.07-.03.07.09,0,.06Z"/>
  <path d="M13.5,18.31c2.94-.82,4.09,3.15,1.53,4.44.06.43.17.85.07,1.32-.22,1.07-1.76,1.68-2.72,1.19-1.22,1.9-4.48.84-4.32-1.44-3.48.1-3.61-4.85-.19-5.06-.02-2.18,2.4-3.57,4.32-2.53.72.39,1.36,1.24,1.31,2.09ZM12.75,19.28c-.05-.16,0-.94,0-1.19,0-.11-.29-.57-.38-.69-1.07-1.35-3.49-.71-3.69,1-.05.44.05.65.11,1.02.09.49-.49.17-.71.15-1.97-.23-2.7,2.56-.92,3.3.39.16.98.19,1.39.09.2-.05.7-.44.53.09-.17.5-.43.65-.23,1.27.52,1.6,3.2,1.5,3.22-.31.15-.04.14.11.25.22.42.43.7.57,1.32.37.68-.22.92-.93.64-1.57-.12-.28-.24-.23-.3-.29-.07-.08-.42-.46-.34-.54.85.09,1.7-.35,1.96-1.2.37-1.24-.82-2.46-2.03-1.91-.14.06-.7.53-.8.2Z"/>
  <path d="M31.25,37.5c-.93-.14-1.92-.25-2.41.75-.3.62-.05.48.24.82.49.56.88,1.24.65,2.01-.03.11-.2.47-.3.33-.19-2.28-2.71-3.25-4.55-1.99l-.7.58c.4-1.67,2.46-2.24,3.94-1.62.23-1.24,1.71-2.03,2.81-1.28.06.04.39.34.32.4Z"/>
  <path d="M23.06,27.44c.07.07-1.16,1.27-1.28,1.37-.82.72-3.19,2.5-4.28,1.78-.17-.11-.35-.33-.22-.53,1.57-.14,2.97-.75,4.3-1.57l1.48-1.05Z"/>
  <path d="M21.69,26.38c-1.15,1.07-3.23,1.57-4.75,1.28-.45-.09-.99-.3-.84-.85.04-.07.11-.12.19-.13.13-.01.99.34,1.32.37,1.4.14,2.81-.14,4.09-.68Z"/>
  <path d="M14.06,31.81c-1.01-.44-2.08-1.03-2.96-1.7-.27-.21-.74-.48-.67-.86.17-.17,1.49.79,1.71.95.67.48,1.33,1.04,1.92,1.61Z"/>
  <path d="M21.94,30.06c-.52.65-1.19,1.33-1.94,1.72-.46.24-1.22.56-1.38-.16.74-.15,1.45-.43,2.1-.8.41-.23.77-.57,1.21-.76Z"/>
  <path d="M15,30.06c-.12.13-1.57-1.44-1.69-1.6-.2-.26-.56-.63-.37-.96.12-.03.23,0,.33.06.34.19,1.14,1.42,1.38,1.81.06.1.4.63.35.68Z"/>
  <path d="M21.5,49.31c1.16.3,1.69-.32,1.94-1.38.51.1.14,1.13-.06,1.41-.41.55-1.68.77-1.87-.03Z"/>
  <path d="M19.31,28.38c-.56.53-1.87,1.12-2.61.76-.26-.12-.38-.35-.33-.64.5.01.97.2,1.47.19s1.01-.18,1.47-.32Z"/>
  <path d="M8.05,34.77c.91-.24,1.09.95.46,1.14-.88.27-1.11-.97-.46-1.14Z"/>
  <path d="M32.42,28.14c.64-.12.99.77.48,1.1-.85.56-1.39-.93-.48-1.1Z"/>
  <path d="M18.36,22.7c.92-.13.91,1.34,0,1.16-.65-.13-.6-1.08,0-1.16Z"/>
  <path d="M10.11,31.82c.73-.16.96.89.27,1.03-.65.13-.88-.89-.27-1.03Z"/>
  <path d="M7.35,28.39c.54-.03.7.9.05.92-.6.02-.63-.89-.05-.92Z"/>
  <path d="M20.98,19.89c.4.38-.16,1.03-.61.64s.21-1.01.61-.64Z"/>
  <path d="M35.36,25.58c.36.27.01.96-.44.66s.03-.97.44-.66Z"/>
  <path d="M23.29,36.7c.46-.14.75.63.27.78-.45.14-.69-.65-.27-.78Z"/>
  <path d="M12.98,33.64c.7-.24.75.84.13.73-.39-.07-.37-.65-.13-.73Z"/>
  <path d="M16.61,31.63c.47-.12.61.61.22.73-.49.15-.63-.62-.22-.73Z"/>
  <path d="M20.85,23.32c.56-.19.64.63.12.56-.28-.04-.3-.49-.12-.56Z"/>
  <path d="M11.45,35.93l-.06-.42c.5-.27.65.56.06.42Z"/>
  <path d="M15.87,33.8c-.14.23-.66-.11-.34-.37.24-.2.44.21.34.37Z"/>
  <path class="cls-1" d="M43.44,16.69c.13-.32.35-.61.38-.97.02-.2-.03-.58-.11-.77-.04-.09-.01-.1-.14-.08-.22,1.17-1.17,2.14-2.19,2.69-.01.27.46.2.64.17.35-.06.65-.34.95-.48l1.08.76c.1.82-.58,1.55-1.3,1.83-1.59.61-3.7-.3-4.25-1.93-.81-2.42.83-4.04,1.66-6.03.04-.09.25-.54.06-.5-.48.09-2.04,2.5-2.29,3.02-.71,1.47-.83,2.98-.11,4.48-1.38.05-2.2-1.07-2.48-2.3-.5-2.15.32-3.79,1.26-5.64.12-.23.97-1.62.84-1.75-.13-.03-.17.03-.25.09-.83.61-2.21,2.93-2.59,3.91-.48,1.23-.51,2.4-.22,3.69-2.33-1.09-2.51-3.51-1.65-5.69.38-.97,1.11-1.96,1.41-2.91.02-.06.15-.49-.03-.41-1.57,1.66-3.02,3.88-2.77,6.27.03.35.27.82.29,1.08.04.47-1.32,2.43-1.67,2.86-.08.1-.3.41-.37.44-.38.18-.57-.17-.62-.5-.1-.7,0-1.61-.08-2.36-.21-1.87-1.12-2.99-.4-4.98.67-1.85,4.42-6.13,6.3-6.7,2.07-.63,4.78.84,6.77,1.52,2.36.81,7.21,1.89,8.94,3.43,4.58,4.09.18,11.89-6.18,8.24-.29-.16-.53-.46-.86-.49Z"/>
  <path class="cls-1" d="M37.94,48.44l.06-.19.07.55.3.13c-.23-.06-.35.3-.5,0l.19-.03-.19-.22-.12.15c.13.18-.11.44.15.47l-.03-.19c.15.08.18.24.37.12v.22s.19-.03.19-.03l-.12.16c-.3-.01-.37-.25-.62-.28v.25s.22,0,.22,0l.03.12-.19.13c.05-.23-.09-.19-.28-.25l-.23.37s.42-.26.5,0c-.21-.09-.26.12-.28.12-.25,0-.3-.18-.32-.18-.03,0-.48.27-.55.31-.06.04-.07.16-.15.18-.12.04-.22-.06-.3-.06-.04,0-.04.1-.08.13-.17.1-.43-.15-.32.46.05.16.32.09.46.11l.03-.19c.1-.02.05.09.1.13.16.11.33.12.27-.13.13,0,0,.18.19.12l.03-.12.22.12c-.48.16-1,.17-1.5.06.11-.39.23-.89-.12-1.19-.14.49-.4.98-.72,1.37l-.03-.25s-.31.06-.25.13c.02.02.15-.05.12.06h-.25s.12.19.12.19c-.11,0-.25,0-.34.07-.18.12.03.36-.37.18-.11.13-.49.29-.68.33-.2.05-.36-.06-.55.01,0,.26-.1.1-.19.2-.05.05-.12.31-.19.42-.36.54-.7,1.08-1.36,1.3.05.72.98-.19,1,.43l-.31-.12-.13.19-.03-.19c-.26.2-.41-.03-.59-.1-.49-.17-.23.11-.25.16-.16-.06-.31.02-.47,0-.11,0-.08-.1-.12-.12-.17-.05-.3.1-.37.23l.03-.25c-.25.04-.46-.11-.68-.15-.14-.03-.23.13-.17-.1-.42-.09-.46-.73-.9-.62l-.13.53.25.16-.31-.06c-.07.32.09.57.11.86,0,.07.07.22-.04.2-.2-.62-.14-1.2.07-1.8h.15c-.11-.47.44-.64.72-.92.5-.5.92-1.25,1.17-1.91.59-.17,1.15-.37,1.77-.4,1.34-2.1,4.3-3.17,6.35-1.41h.09Z"/>
  <path class="cls-1" d="M52.75,15.75c1.54-3.32-.19-7.43-3.56-8.75.71-1.5,2.42-1.47,3.71-.74,2.49,1.43,3.99,5.64,2.55,8.22-.58,1.04-1.53,1.44-2.7,1.27Z"/>
  <path class="cls-1" d="M30.81,22.69c-.2-.12-.45.2-.44.38l.09-.12c.16.11.36.12.33.36-.37.2-.5.88-.93.95l.06.18c-.36.31-.73.81-.93,1.26-.3-.29-.63-.56-.94-.84-.74-.67-1.3-.98-2.23-1.4-.27-.12-.56-.22-.83-.32.01-.1.15-.06.25-.15.07-.07.16-.25.19-.35l.09.12.34-.25c.11-.15.03-.09-.07-.1-.52-.08-.17-.13-.08-.29.17-.27.3-.51.52-.76.08-.1.58-.67.63-.69.97-.41,3.3,1.27,3.94,2.03ZM30.23,23.02c-.15-.1-.32-.03-.48.01-.13.08.06.12.04.22s-.22.21.09.25l.03-.19c.13.1.43.04.53-.06.01-.01-.2-.22-.21-.23Z"/>
  <path class="cls-1" d="M36.37,19.5c-.62.85-1.89,1.69-2.94,1.16l1.72-2.03c.36.35.7.79,1.22.87Z"/>
  <path class="cls-1" d="M45.13,44.13l.25-.06-.16-.31c-.24.2.04.18.03.22-.02.14-.18.06-.22-.03-.19.11.04.16,0,.25s-.19.15-.28.12c-.03-.1.11-.03.13-.1.02-.08-.01-.19,0-.27l-.12.06-.23-.42-.41.11s.35.38-.06.31c.07-.14.04-.23-.06-.34l.25-.09c-.04-.39-.17-.29-.44-.47.18-.09.14-.51.2-.58.05-.06.33-.06.33-.26l-.03.15c.1.15.22.29.13.47.26.06.28-.22.5-.19l-.06-.12c.16,0,.31-.14.44.03l-.31.03.25.13-.19.1v.21s-.18,0-.18,0l.06-.19h-.31c.09.14-.05.25-.05.33,0,.09.14.2.05.35l.19-.04.06-.2h.24s-.06-.2-.06-.2c.16-.05.18-.04.31.06l.03-.19c.09.22.21.18.41.13l-.12.44h.31s.06-.69.06-.69l-.19-.03c.25-.06.06-.27.06-.47l-.06.19c-.23.1-.36-.07-.56-.13-.06-.24.24-.04.33-.06.04-.01.08-.18.23-.12-.16-.32-.23-.52-.62-.37.3-.91.83.62.87.98s-.08,1.05-.37,1.31c-.07.06-.58.12-.62-.03ZM45.06,43.63c.02-.11,0-.22-.12-.25v.25s.12,0,.12,0c-.03.02-.04.09-.12.06l.09.19c-.04-.17.25-.3.41-.31l-.06-.19c-.21-.04-.03.1-.15.19-.06.04-.13.04-.16.06Z"/>
  <path class="cls-1" d="M48.87,47.31l.06-.12c.03.2-.16.39-.16.57,0,.15.12.37.14.54.11.88.04,1.8-.55,2.52.11-.19.12-.54.19-.7.03-.07.14-.07.19-.2s.06-.28.06-.41l-.16.12-.19-.37-.06.25-.47-.44c.13.02.18,0,.22-.13l.25.25c.23-.17.25-.05.47.06l-.12-.16c.05-.06.14-.13.16-.21.08-.36-.28-.14-.16-.38h-.31s.28-.19.28-.19l.15.12c-.02-.17-.05-.32-.24-.23l-.07.11c0-.11-.02-.23.01-.33.04-.14.31-.23.07-.24.11-.19-.16-.36-.14-.46.04-.18.3-.05.37.03Z"/>
  <path class="cls-1" d="M24.43,52.95s.04.28.14.36c.16.02.14,0,.06-.12l.18-.07c-.06.15-.03.19.06.31l-.25.19c.1.03.02-.1.11-.13.06-.02.14,0,.21,0l.03-.25c.09.13.1.22.28.19,0,.11-.22.02-.12.19,0,0,.07,0,.1.03.05.05.15.21.17.21.1.04.28-.17.24.07-.12-.03-.3.09-.4.06s-.08-.33-.41-.12c.07-.32-.36-.19-.56-.19l.12-.12c-.24-.04-.27.27-.5.12-.05.16.15.16.18.19.02.02-.11.47-.24.46.02.18.43.21.59.29l.06-.12c.35.21.43-.31.55-.38.01,0,.34-.04.3.08l-.44.25.19.09-1.31.12-.13-.43s.34.03.31-.16l-.22.03c-.08-.24-.2-.13-.26-.17-.11-.07-.13-.23-.33-.21l.19-.09c-.5-.22.11-.68.44-.47l.03-.31c.13.11.06.3.03.44-.26-.11-.74.12-.43.31-.09-.32.65-.3.72-.06l.16-.09-.31-.13.44-.22c-.23.06-.2-.17-.31-.31l.36.14Z"/>
  <path class="cls-1" d="M31.19,31.13c-.09.25-.22-.03-.37,0l.12.31-.25-.25-.03.25-.09-.31.12-.07c-.63-.06-1.25-.06-1.87.06l.25.34-.19.03-.06-.25-.06.69.25-.06-.06.19-.19-.06.06.25.16-.11h.22s-.19-.21-.19-.21h.25c.08.4-.19.38-.44.54v.61c.22.04.19.08.25.28l-.3-.13c-.04-.73-.14-1.44,0-2.17.8-.2,1.64-.17,2.43.06Z"/>
  <path class="cls-1" d="M47.64,48.49s.15.14.16.14c.1.01.19-.05.29-.04.07,0,.35.01.35.1-.23.18-.47.12-.75.19l.12.12c-.09.02-.25.04-.31.09-.14.13.09.33-.44.12l.07-.39c.33-.06.31-.37.52-.58.09.05-.05.16-.02.24Z"/>
  <path class="cls-1" d="M42.35,45.52c.22.18.02.39.15.6-.27-.11-.34.18-.53.16-.18-.02-.41-.33-.65-.29.26-.3.62-.4.84-.75v.19c.04.05.15.04.2.08Z"/>
  <path class="cls-1" d="M43.19,45.88l-.17.15.11.32c-.11.18-.18-.02-.28-.09-.14.12-.04.37-.28.37-.03.1.09.04.1.07.02.04-.04.1.05.18s.3.14.41.19c.09.11-.28.29-.35.31l.04.19h-.19c.1-.19-.1-.26-.16-.5-.03-.13.12-.02.1-.09-.03-.09-.13-.12-.18.01-.03.08.04.22-.07.21l-.19-.87c.25.1.38-.1.63-.13l-.06-.25.5-.06Z"/>
  <path class="cls-1" d="M40.44,46.75l-.19.06.25.25c0,.3-.26.11-.45.13-.17.02-.47.26-.55.08-.03-.06.16.02.12-.09-.11.02-.56.19-.62.03.28-.05.12-.26.37-.03.06-.08-.26-.28-.03-.37.15-.06.07.15.1.18l.62-.06-.06-.12.44-.06Z"/>
  <path class="cls-1" d="M47.25,45.19l-.06.19.34.12-.03-.22c.25-.21.31.1.12.25l.12.06c-.27.2-.12,1.47-.25,1.59-.21,0-.2-.12-.42-.08s.02-.19.16-.18v-.24s.26.12.26.12c.03-.03-.07-.75-.05-.85,0-.04.2-.02.11-.15,0,0-.07,0-.1-.02-.21-.22-.1-.13-.43-.04l.03-.19c-.23.22-.25.2-.53.06l-.03.19-.25-.06.06-.31.69-.06-.06-.19h.31Z"/>
  <path class="cls-1" d="M31.85,55.9c.78.54,1.27.44,2.15.25.06-.01.2-.08.19.03l-.25.06.06.19-.25-.06v.31c-.13-.07-.36-.01-.47-.12-.15-.15.12-.09.09-.19h-.31s.12.09.12.09c-.07.07-.11.14-.22.16-.2.03,0-.25-.16-.25l-.03.11-.22.14-.13-.22.12.03s-.04-.17-.09-.19c-.24-.07-.14.24-.34.19l.06-.25-.62.06.06-.25c-.22.05-.12.11-.22.25l-.03-.12-.19.06.28-.44.16.19-.06-.25s.24.18.28.22Z"/>
  <path class="cls-1" d="M39.53,50.63c.19-.03,1.05-.48,1.09-.44v.37c-.16.05-.18.04-.31-.06-.02.2-.38.42-.31.06l-.31.06s.1.1.11.17c.07.32,0,.37-.3.26l.19-.09c-.21-.41-.4-.22-.71-.23-.05,0-.35-.03-.35-.12.28-.03.63.04.91,0Z"/>
  <path class="cls-1" d="M12.37,50.87c.07-.33.66.13.88.19l-.18.22.12.15c-.39.08,0-.32-.22-.44l-.22.31-.12-.05v-.14s-.37.06-.37.06l-.07-.24-.19-.03c.15-.2.2-.18.37-.03Z"/>
  <path class="cls-1" d="M23.37,51.44c.32.43-.21.57-.6.62-.6.07-1.11-.05-1.65-.31,0-.11.36-.04.4-.03.18.05.2.18.27.21.1.04.3.02.42.07l-.03-.16.13-.03v.18c.38.1.49-.21.88-.12l-.07-.21.25-.23Z"/>
  <path class="cls-1" d="M45.99,40.57c.08.06.04.34,0,.43l.31-.06-.25.13c-.06.19.1.16.12.23.04.09-.04.26.1.33l.28-.06v-.24c.13-.16.52.16.44.24l-.31-.12c-.07.31.29.22.31.44.13.01.02-.26.06-.31l.19.06s-.18.27-.19.35c0,.01.21.05.12.22l-.06-.12h-.25s0-.19,0-.19c-.18.1-.36-.08-.38.19h-.06c-.16-.34-.48-.83-.88-.88l.38-.16-.12-.04.06-.18s-.31.1-.31-.06l.16-.13c.09.25.18.16.13-.06h.15Z"/>
  <path class="cls-1" d="M29.84,56.47s.09.03.09.06c0,.05-.08.14-.05.22h.24s.18-.26.18-.26l-.05-.11.31.13v.12s-.19-.03-.19-.03l.31.22-.25.06h.69s-.06-.12-.06-.12l.16-.06.09.12-.12.06h.38s0-.19,0-.19l-.19-.06h.22s.03.19.03.19c.43-.06.81.16,1.25.13l.09-.12-.03.12c.13,0,.27.01.4,0,.16-.02.46-.23.6,0-.2,0-.39.06-.59.07-.65.04-1.3-.06-1.94-.06s-1.18-.02-1.78-.19l.13-.37c.08-.02.05.04.09.1Z"/>
  <path class="cls-1" d="M31.37,31.87l-.19.19c.32.18.41-.15.69-.25v.37s-.07-.12-.07-.12l-.24.06c.25.7.75-.1,1.19.25l-.05-.28.21-.16c.3.05-.12.24-.03.31l.19.06h-.25s.19.12.19.12c-.66-.04-1.31.06-1.94.25-.05-.21.22-.1.34-.18.06-.04.02-.22.16-.22-.34-.14-.94-.42-.44-.78l.25.37Z"/>
  <path class="cls-1" d="M44.25,46.31s.15,0,.13.12l.22-.12.16.19c-.24-.05-.53.15-.67.33-.05.06.03.19-.08.17-.07-.17.06-.36-.19-.38v-.09c.17-.1.23-.12.19-.34l.19.04.06-.22.12.15-.12.16Z"/>
  <path class="cls-1" d="M13.69,50.5l.5-.06.03.19.1-.18.43.18.03-.19.06.13.47-.19c-.52.51-1.55.4-2.06-.09.27-.01.37.36.5-.09.19.03-.08.3-.06.31Z"/>
  <path class="cls-1" d="M44.75,49.19l.06.37.12-.19c-.05.22.14.21.25.34l-.13.06.13.19-.13.15h-.12c.19-.53-.38-.51-.75-.5.03-.27.24-.15.3-.2.05-.04-.01-.32.26-.24Z"/>
  <path class="cls-1" d="M44.64,47.77c-.08.15-.08.45-.33.54.05-.13.05-.31.19-.34l-.25-.03.25-.25c-.04-.14-.24-.07-.19-.25l.16.06.12-.13.22.07-.06-.25h.18s0-.21,0-.21l-.13-.07.19-.03-.06-.19.12.06-.09-1.13c.33.45.13,1.42-.1,1.9-.08.16-.2.19-.22.24Z"/>
  <path class="cls-1" d="M46.94,40.75c-.14-.03-.07-.19-.17-.25s-.37-.14-.48-.06l.03-.19-.31.25c.04-.06,0-.23.01-.24.15-.17.64-.11.71.11.22-.14.1-.23.1-.41,0-.07-.05-.23.06-.22-.05.2.17.39.17.54,0,.1-.19.29-.11.46Z"/>
  <path class="cls-1" d="M38.25,47.5l-.05.11.11.04-.25.28.31.03c-.08.12-.21-.02-.19.16l-.31-.19v.25s-.38-.56-.38-.56l.75-.13Z"/>
  <path class="cls-1" d="M41.69,46.81l-.28-.12-.16.25c-.14-.62-.86-.52-1.34-.37l-.07-.13-.24.07-.03-.12c.14-.15,1.96.03,2.12.44Z"/>
  <path class="cls-1" d="M18.62,51.75l-.12.03c.12.15.09.3.06.47-.25.05-.02-.18-.07-.24-.27-.2-.57,0-.87,0l.37.31-.62-.13.19-.19-.31-.03c.45-.08.95-.06,1.34-.34l.03.12Z"/>
  <path class="cls-1" d="M37.31,51.81c-.08.12-.15.17-.06.31l-.22.06-.12-.18-.22.12v-.25c-.51.09-1.01-.04-1.51-.04-.04.24-.15.21-.37.29l.41-.42c.69.25,1.39,0,2.09.11Z"/>
  <path class="cls-1" d="M45.94,50.37c.17.2-.28.74-.47.69-.27-.22.13-.43.09-.69h.37Z"/>
  <path class="cls-1" d="M34.25,46.81s.43-.25.5-.06l-1.17.42-.33-.04.47-.44-.03.31.47-.18-.03-.25c.19,0,.2.11.12.25Z"/>
  <path class="cls-1" d="M21.31,53.13v.24s-.25.07-.25.07l.05.22-.17.09.13.31.31-.06-.06-.25h.56c.04-.08-.26-.06-.12-.19.02-.02.35.11.38-.25.14.02.01.3.22.2l.03.11c-.25-.11-.45.25-.47.25-.06,0-.16-.08-.24-.07-.05,0-.06.14-.14.19-.32.21-1.26.18-1.65.19l1.06-.19-.07-.18-.11.04v-.11s-.23.19-.23.19l.03-.12-.19.06v-.38c.4.06.31-.11.47-.37l.16.19-.06-.25.37.07Z"/>
  <path class="cls-1" d="M44.25,44.63c-.16.34.2.45.06.75-.13,0,0-.18-.19-.12l-.03.12-.16-.16.12-.22-.2.17-.11-.05.06.16-.12.03c-.07-.16,0-.24.1-.37l.46-.32Z"/>
  <path class="cls-1" d="M37.75,54h-.12s.12.09.12.09l-.25.22.31.06c-.64.16-1.23.15-1.87.06l.06-.19c.1-.03.03.12.1.13s.17-.05.24-.03c.3.05.65.18.98.03.18-.09.14-.73.43-.37Z"/>
  <path class="cls-1" d="M40.62,47.5c-.13.01-.09.19-.14.24-.07.06-.24-.09-.17.26-.22.05-.07-.16-.16-.25-.1.14-.2.15-.34.06l-.06.31-.19-.06.19-.19-.12-.19.18.05.14-.12.03.19c.29-.13,0-.32.41-.19l-.06-.25.16-.06c.04.18.11.06.14.08.03.01,0,.1.01.11.03.02.19-.02.25,0l-.19.37.31-.06v.12c-.13.08-.23.26-.44.39-.07.04-.09.07-.18.04-.04-.18.12-.08.16-.25.05-.19-.03-.42.09-.63Z"/>
  <path class="cls-1" d="M16.31,52.56l-.25-.13.13-.1-.19-.78-.5.06.16-.19.05.09.17.03-.25-.5c.55.23.51,1,.69,1.5Z"/>
  <path class="cls-1" d="M46.46,45.04c.04.06.16.06.17.14h-.37s0-.19,0-.19l-.43.06-.06.31-.06-.37c.22-.08.39-.38.65-.19.1.07.07.17.12.22Z"/>
  <path class="cls-1" d="M46.12,47.81c.15.15-.21.1-.24.13.07.11-.05.16-.07.21-.06.17.2.04.28.15l.09.5-.19.06.25.06c0-.12.02-.27.19-.25l-.13.37.37.06-.47-.05c-.05,0-.16.42-.28-.01l.25-.13-.31-.09c.3-.26-.23-.55-.19-.84l.12.06.06-.31.25.06Z"/>
  <path class="cls-1" d="M47.62,41.94v.25s.13-.16.13-.16l-.1.72c.17.33.53-.13.6-.06l-.06.37c-.18.08-.18-.11-.23-.12-.1-.02-.27.05-.34-.04-.03-.04-.13-.3-.12-.36,0-.04.12-.03.13-.08.04-.19-.28-.56,0-.52Z"/>
  <path class="cls-1" d="M49.25,44.38l.06,1.12-.19-.06.12-.12h-.19s.06-.25.06-.25l.12.19v-.31s-.19.03-.19.03l-.1-.32c-.02-.05.23-.36.29-.28Z"/>
  <path class="cls-1" d="M36.56,46.69v.25s1.08-.06,1.08-.06l.04-.19.25.19c-.39.07-.81.23-1.21.18-.23-.03-.46-.19-.72-.12l.16-.19c.05.19.17.12.34.12l-.06-.16.12-.03Z"/>
  <path class="cls-1" d="M29.06,54.88l-.06.18.12.04-.11.04.02.43-.16.06v-.18s-.19-.01-.19-.01l.19-.19-.19-.06.25-.13c-.09.02-.29,0-.36.04-.1.05-.04.16-.14.14v-.31c.16-.11.24.05.34.06.11,0,.16-.16.28-.13Z"/>
  <path class="cls-1" d="M40,52.06l-.12,1.06c.24,0,.48.02.72,0,.18-.01.51-.2.59,0l-1.38.06c0-.38.13-.75,0-1.12h.19Z"/>
  <path class="cls-1" d="M47.73,44.21c.31.26.11.33.1.45,0,.06.14.11.1.22l-.19-.19-.09.12-.21-.28.17-.19-.12-.21c.09-.01.17.03.23.08Z"/>
  <path class="cls-1" d="M40.63,51.12l.19-.06-.03.19-.59-.13.12.31h-.19c.03-.05,0-.25-.02-.28-.03-.06-.13,0-.11-.09h.38s-.05-.15-.05-.15c.05-.23.46-.04.3.21Z"/>
  <path class="cls-1" d="M45.17,50.74s-.13-.03-.11.07l.19.13-.19-.04-.07.22h-.15s.03-.12.03-.12l-.19.06c-.05-.16.14-.15.17-.2.01-.02-.11-.14.08-.11l-.19-.31.38.09s.05.2.04.21Z"/>
  <path class="cls-1" d="M31.38,48.56c.06-.11.1-.31.18-.39.15-.15.11-.02.28-.28.07-.1.26-.09.04-.33.07,0,.14.02.21,0,.08-.02,0-.15.1-.13.01.08-.02.16-.05.23-.05.12-.64,1.01-.76.89Z"/>
  <path class="cls-1" d="M24.56,52.31l.04.19h.28s-.06-.13-.06-.13c.12-.02.22-.08.35-.07.11,0,.08.11.14.13.08.03.22-.05.21.06l-.25.19c-.16-.15-.24-.1-.44-.06l.19.22-.25.22-.13-.25.12-.06c-.07,0-.12-.04-.2-.03-.15.02-.06.21-.24.16-.05-.16.16-.16.18-.19.02-.03-.2-.43.07-.37Z"/>
  <path class="cls-1" d="M38.95,52.86l.42-.05c.12.16-.43.28-.49.32-.02.01.06.14-.04.18l-.03-.19-.22.19-.09-.12-.03.25-.22.06.12-.34-.24-.29c.07.06.23,0,.24.01.03.03-.04.14.07.11l.03-.19.15.21.16.04.09-.22-.19-.03.09-.25.17.3Z"/>
  <path class="cls-1" d="M23.31,53.94c-.24.15-.19.49-.5.56l.19.12-.44-.06c-.06-.22.16-.02.18-.16,0-.04-.05-.1-.04-.14.07-.19.33-.06.36-.08l-.04-.19.29-.06Z"/>
  <path class="cls-1" d="M28.07,55.07c-.19.46.12.49.33.74.02.03-.08.23.28.13v.24s.23.06.23.06l.15-.17.07.21-.13.07.44.28c-.69-.15-1.31-.8-1.63-1.41l.13.03.06-.31.19-.12c.16.07.05.37-.12.26Z"/>
  <polygon class="cls-1" points="42.25 49 42.31 49.37 41.44 49.25 41.88 49.19 41.81 49.06 42.25 49"/>
  <path class="cls-1" d="M31.5,54.81l-.12.25c.18.07.18-.11.23-.12.03,0,.06.03.08.03.11-.02-.01-.08,0-.09.09-.06.21.15.25.12l.03-.13c.16.04.23.17.41.07l-.06.21c-.19-.07-.13.13-.19.29l-.38-.34-.37.03v.37s-.06-.37-.06-.37c-.07.09-.4.03-.37-.03.07-.15.25,0,.31-.03.05-.04-.01-.34.25-.25Z"/>
  <path class="cls-1" d="M39.19,51.87l-.05.16c.14.06.25.28.05.34-.02-.18-.19-.46-.38-.31l-.03-.25-.06.13c-.17.06-.14-.29.13-.25.19.02.14.31.34.19Z"/>
  <path class="cls-1" d="M13.94,48.63l-.19.16.19.09-.37.03.19.28c-.22.02-.16-.31-.37-.19l.12-.25-.25.19-.12-.09.07-.15.74-.07Z"/>
  <path class="cls-1" d="M33.37,53.25l-.12.31c.33.05.18.25.19.5l-.06-.12-.25.12.06-.25.19.06v-.16s-.37-.16-.37-.16v-.18s.37-.13.37-.13Z"/>
  <path class="cls-1" d="M26.56,51.94c.03.11-.1.03-.12.1-.02.07.03.32.06.4l-.41-.12v-.19c.27-.05.23-.32.47-.18Z"/>
  <path class="cls-1" d="M10.75,50.31h.12s0-.12,0-.12c.42.09-.07.18-.07.21l.13.47.19-.06-.13.37-.31-.91.06-.12v.16Z"/>
  <path class="cls-1" d="M42.94,52.25c-.23.35-.45.4-.75.12l-.12.19-.06-.22c.33-.06.63.08.94-.09Z"/>
  <polygon class="cls-1" points="43.8 51.39 43.9 51.81 44.25 51.94 43.69 52 43.75 51.44 43.5 51.69 43.5 51.31 43.8 51.39"/>
  <path class="cls-1" d="M14.25,51.81c-.04.31-.24.31-.5.37l.06.19-.13-.12c-.3.08.18.95.13,1-.46.02-.89-.16-1.31-.31l.16-.25.03.25.25-.06-.03.12.84.19-.19-.69-.19.06-.06-.25.31-.07.03-.24.06.12c.27-.06.35-.06.35-.37l.19.06Z"/>
  <path class="cls-1" d="M24.06,51.44l-.06-.5.38.03c.18.11-.21.4-.31.47Z"/>
  <path class="cls-1" d="M43.81,47.13l-.04.19c.09.12.34-.03.29.19-.35.12-.65-.29-1-.12,0-.33.42-.04.52-.06.07,0,.06-.25.23-.19Z"/>
  <path class="cls-1" d="M46.62,50.44h.25s0,.19,0,.19c-.16.06-.1-.12-.17-.13-.07-.01-.18.06-.27,0l-.06.25v-.62s.19.31.19.31l.07-.41c.04-.1-.25-.1-.13-.21.21-.2.21.55.12.62Z"/>
  <path class="cls-1" d="M42.8,50.11s.11-.27.26-.05c-.11.01-.18.11-.28.13-.15.02-.13-.13-.31.07-.12,0-.21-.11-.32-.13-.15-.03-.51.1-.47-.13l1.11.11Z"/>
  <path class="cls-1" d="M35.85,55.84s.03.07.02.1l.06-.19.19.09-.62.41c-.03-.22.02-.33.25-.31l-.06-.19s.13.07.17.09Z"/>
  <path class="cls-1" d="M26.75,53.13c0,.51-.36.86-.81,1,.03-.22.2-.18.32-.27.27-.21.37-.29.37-.67l-.13.19-.06-.19h-.37s.12.16.12.16c-.16.13-.15-.17-.23-.22-.11-.07-.34-.07-.46,0v-.25c.39.18.81.31,1.25.25Z"/>
  <path class="cls-1" d="M38.19,52.19h-.19s.03-.19.03-.19c-.26.04-.18.19-.34.31l.03-.19-.34-.03c.09-.16.19-.03.27-.03.04,0,.03-.11.08-.12.11-.03.27.02.39-.06l.06.31Z"/>
  <path class="cls-1" d="M21.62,51.31c.02.16-.11.21-.25.19l.12-.12-.16-.06-.15.19c-.04-.15-.19-.16-.13-.37l.31.12-.12-.19.25-.06c-.05.19-.12.28.12.31Z"/>
  <path class="cls-1" d="M20.19,51.75c-.24-.01-.1.29-.31.25.06-.21.14-.34.06-.56l-.21.06-.22-.25c.08-.02.19-.03.27-.07s.01-.15.11-.12l.31.68Z"/>
  <path class="cls-1" d="M43.23,48.83c.06.08.09.19.08.29l-.87.19.69-.19c0-.15-.23.05-.19-.19,0-.01.21.18.13-.19,0,0,.16.06.17.08Z"/>
  <path class="cls-1" d="M39.5,49.38s-.05.15-.16.13l-.34-.38.44.03.06-.25c.07-.13.3.05.25.09l-.19.03.07.31c-.02.07-.11.03-.13.04,0,0,.07-.12.06-.12l-.25.06v.06c.05,0,.15.02.19,0Z"/>
  <path class="cls-1" d="M43.62,45.38l-.02.18-.11.04.19.06c-.25.22-.39-.1-.63-.16-.01-.12.13-.04.21-.06.07-.02.03-.2.36-.06Z"/>
  <path class="cls-1" d="M22.12,52.75l-.13.16.13.09h-.19s0,.25,0,.25v-.44s-.19,0-.19,0l.03.25c-.14-.1-.15-.16-.09-.31l-.38-.12.81.12Z"/>
  <path class="cls-1" d="M30.5,56.19l-.46.19-.22-.22c.05-.13.63-.2.69.03Z"/>
  <path class="cls-1" d="M35.81,45.81c.08.07.16-.04.13-.12l.12.09c-.09.1-.65.68-.75.59l.12-.19-.19-.06.24-.05.04.11c.14-.19.29-.22.22-.5.11-.02.04.1.06.12Z"/>
  <path class="cls-1" d="M15.81,53.62c-.06.04-.58-.05-.62-.19.15-.02.1-.14.28-.13.15,0,.03.18.22.13l.06-.25.06.44Z"/>
  <path class="cls-1" d="M48.56,43.38l-.12.19h.11s-.05.15-.05.15l.13.07c-.06.06-.18.33-.31.22-.1-.09.24-.17.12-.31l-.19.06c0-.09-.02-.19,0-.27.04-.13.18-.11.3-.1Z"/>
  <path class="cls-1" d="M48.62,45.37l-.13-.12c-.06-.04-.21.21-.08.25l.27.06-.03-.44.17.49.39.07.1-.13-.13,1.12c-.11.01-.06-.14-.05-.21.02-.2.06-.47.12-.66l-.16.06-.06-.12-.25.12-.16-.3-.12.19c0-.2-.36-.21-.29-.44.14-.32.33-.2.41.06Z"/>
  <path class="cls-1" d="M26.37,51.25c-.13,0,0-.23-.19-.19l.19-.06c-.07-.25-.42.03-.5-.19.45-.28.74-.02.5.44Z"/>
  <path class="cls-1" d="M41.5,51.75c-.05.15-.09.09-.17.08-.43-.06-.48-.13-.39-.58.31,0,.09.29.15.38l.41.12Z"/>
  <path class="cls-1" d="M22.62,53.12v.19s.31.03.31.03l-.16.16-.03-.12c-.18.17-.28.1-.5.06l.08-.14.29-.17Z"/>
  <path class="cls-1" d="M37.94,52.38l-.09.38-.35.06.12-.09-.12-.13c.12-.05.14-.08.13-.21h.31Z"/>
  <path class="cls-1" d="M23.87,52.44c.04.21-.21.06-.08.28l-.08.09c-.28-.2-.51.09-.78,0l.94-.37Z"/>
  <path class="cls-1" d="M38.44,45.94l-.03.13c.35.1.41.32.06.5.03-.27-.08-.41-.28-.59l.25-.03Z"/>
  <path class="cls-1" d="M37.61,53.3l.14-.11v.31c-.19.05-.07-.14-.21-.13-.05,0-.19.05-.21.08-.04.06.04.19-.07.17-.12-.26.04-.15.12-.31l-.25-.06c.19.03.04-.11.16-.19l.19.24h.14Z"/>
  <path class="cls-1" d="M39,47.81l.25-.12v.31s-.25.07-.25.07v.17s.12.07.12.07l-.16.06-.16-.28.25-.1c.03-.2-.19-.07-.12-.31l.06.12Z"/>
  <path class="cls-1" d="M36.69,55.25s-.48.68-.44.31c.16.03.08-.15.19-.25h-.5c0-.11-.04-.13.08-.11.22.04.44.11.67.05Z"/>
  <path class="cls-1" d="M27,51.25l-.13.09.19.03-.06.12c.16-.05.17.09.24.12.09.04.28-.04.33.13h-.56s.12-.19.12-.19c-.35.12-.62-.38-.13-.31Z"/>
  <path class="cls-1" d="M46.75,40.94s-.01-.1.03-.12c.03,0,.28.08.35.06l-.34.3-.28-.33c.08-.12.21.13.25.09Z"/>
  <path class="cls-1" d="M47.81,41.94l-.19-.06c.06-.13.13,0,.13-.22,0-.15-.29-.3-.07-.47l.06.25c.07-.2-.14-.58.06-.69v1.19Z"/>
  <path class="cls-1" d="M43.94,50.88c-.05.05-.18.29-.2.3-.11.06-.28-.07-.33.13l-.22-.06.12-.07-.06-.18.34.12.1-.12-.12-.06.37-.06Z"/>
  <path class="cls-1" d="M33.56,55.56l-.53.13-.53-.07.34-.19.12.18c.19-.14.38-.06.6-.06Z"/>
  <path class="cls-1" d="M14.81,51.38c-.03.12-.27.05-.39.08-.07.01-.11.11-.2.11-.04,0,0-.2-.16-.13l-.06.25-.12-.1c.12-.43.6-.15.94-.22Z"/>
  <path class="cls-1" d="M39.5,48.19l-.25.28.19.19-.12.03.06.19h-.25s.12-.06.12-.06c-.06-.27-.11-.56.25-.63Z"/>
  <path class="cls-1" d="M47.05,44.2s.15.26.14.32l-.16.1-.16-.22.12-.09-.37.06c-.04-.21.31-.24.42-.17Z"/>
  <path class="cls-1" d="M38.5,49.88h.25s.06-.13.06-.13v.25s-.62-.06-.62-.06c-.02-.12.12-.03.17-.07.03-.03.05-.24.08-.3l.06.31Z"/>
  <path class="cls-1" d="M11.97,52.46c.16.12.26.33.53.22l-.06.19c-.32-.13-.62-.33-.81-.62.13,0,.25.13.35.21Z"/>
  <path class="cls-1" d="M18.63,52.74c.19-.09.5-.07.62.13l-.62.06-.06-.28.07.09Z"/>
  <polygon class="cls-1" points="19.75 52.5 19.62 53 19.19 52.97 19.56 52.88 19.5 52.5 19.75 52.5"/>
  <path class="cls-1" d="M43.4,46.4c.08.11.15.11.09.31l.12-.03-.16.25-.04-.12-.18.05c0-.09-.02-.12.04-.19.16-.18.13.02.02-.34.05-.09.06.02.09.06Z"/>
  <path class="cls-1" d="M36.56,53.62v.19c-.1.03-.04-.08-.07-.1,0,0-.29.02-.11-.12.11-.09.44,0,.56-.16,0,.22-.22.25-.37.19Z"/>
  <path class="cls-1" d="M47.69,51.31s-.07,0-.09,0l.03.12-.31-.12.25.31h-.31s.06-.35.06-.35l.38-.09s0,.08,0,.12c.07-.02.12-.03.19-.06,0,0,0,.06,0,.06l-.19.12s0-.08,0-.12Z"/>
  <path class="cls-1" d="M47.88,51.25c.06-.03.22-.11.25-.16l-.12-.22c.31.23.13.36-.09.56l-.03-.12c.07.03.07-.09,0-.06Z"/>
  <path class="cls-1" d="M48.19,46.13c.02.1-.02.47,0,.5l.21-.07.05.12.14-.05.03.12c-.16-.01-.23-.04-.28.12-.13-.08.06-.23-.16-.19-.09.11.17.5-.06.56,0-.26,0-.52,0-.78,0-.12-.15-.47,0-.53,0,.02.06.18.06.19Z"/>
  <path class="cls-1" d="M48.31,45.94s.18-.14.19-.12l-.06.19.38.12-.4-.06c-.07.15-.07.16-.22.07.12-.04.12-.18.12-.19Z"/>
  <path class="cls-1" d="M48.12,45.94s-.18-.05-.12-.19l.31.07v.12s-.18,0-.18,0Z"/>
  <polygon class="cls-1" points="11.75 50.75 11.69 50.94 11.56 50.94 11.63 50.75 11.75 50.75"/>
  <rect class="cls-1" x="43.81" y="47.69" width=".06" height=".12"/>
  <path class="cls-1" d="M12.75,19.28c.1.33.66-.14.8-.2,1.22-.55,2.41.67,2.03,1.91-.26.85-1.1,1.29-1.96,1.2-.08.08.26.46.34.54.06.06.17.01.3.29.29.64.05,1.35-.64,1.57-.61.2-.89.06-1.32-.37-.1-.11-.09-.26-.25-.22-.02,1.82-2.7,1.91-3.22.31-.2-.62.07-.77.23-1.27.18-.53-.33-.14-.53-.09-.4.1-1,.07-1.39-.09-1.77-.74-1.04-3.53.92-3.3.22.03.8.35.71-.15-.07-.37-.16-.58-.11-1.02.19-1.71,2.62-2.35,3.69-1,.09.11.38.58.38.69,0,.25-.05,1.02,0,1.19Z"/>
  <path class="cls-1" d="M20.93,33.95c.07.04.19.41.14.49l-.28-.13c-.08.29-1.01-.01-.47-.18l-.06.19.62-.13c.1-.14-.26-.14-.12-.25.01-.01.14,0,.17.01Z"/>
  <path d="M30.23,23.02s.22.22.21.23c-.1.1-.39.16-.53.06l-.03.19c-.3-.03-.11-.13-.09-.25s-.17-.14-.04-.22c.16-.04.33-.11.48-.01Z"/>
  <path class="cls-1" d="M48.19,47.31s-.19.16.12.13l-.03.12.22.06c0,.16-.36.05-.37.06.07.23.17.24.38.25v.31s-.34.07-.34.07c-.11-.08.06-.06.08-.07.18-.26-.16-.11-.25-.17-.17-.11,0-.51.08-.67.03-.06.02-.18.13-.09Z"/>
  <rect class="cls-1" x="46.69" y="46.88" width=".12" height=".06"/>
  <path d="M45.06,43.63s.1-.01.16-.06c.12-.09-.06-.23.15-.19l.06.19c-.16,0-.44.14-.41.31l-.09-.19c.08.03.1-.04.12-.06h-.12s0-.25,0-.25c.12.03.14.14.12.25Z"/>
  <path class="cls-1" d="M24.73,54.08s.09.16.08.17c-.13.02-.26.04-.25.19l-.19-.22-.19.04c-.06-.16.1-.11.12-.15l-.11-.25c.28-.27.25.05.35.16.06.06.15.05.2.08Z"/>
  <polygon class="cls-1" points="24.12 54.37 24 54.28 24.06 54.13 24.12 54.13 24.12 54.37"/>
</svg>